<ttFont>
          <CharString index="0">
            -19 -66 rlineto
            -3 hlineto
            47 -26 16 callsubr
            hvcurveto
            149 -137 rmoveto
            -66 -41 48 97 144 104 143 114 45 39 -25 -62 35 hvcurveto
            -50 -241 rlineto
            -66 -57 -61 -38 -62 hhcurveto
            return
          </CharString>
          <CharString index="1">
            hlineto
            -71 -354 rlineto
            -70 -71 -57 -31 -42 hhcurveto
            -60 -25 30 59 19 2 14 6 29 hvcurveto
            61 304 44 callsubr
            -310 rlineto
            -6 -27 -2 -14 -24 vvcurveto
            -69 33 -48 82 58 54 40 50 58 vhcurveto
            4 hlineto
            return
          </CharString>
          <CharString index="2">
            -7 -61 rlineto
            35 hlineto
            57 293 rlineto
            4 18 4 27 19 vvcurveto
            99 -51 36 -86 -55 -61 -23 -27 -46 vhcurveto
            16 -32 rlineto
            27 46 50 19 45 hhcurveto
            70 31 -26 -77 -18 -2 -15 -5 -24 hvcurveto
            return
          </CharString>
          <CharString index="3">
            rmoveto
            68 127 41 76 38 69 39 80 rlinecurve
            4 hlineto
            7 -78 9 -74 7 -73 15 -127 rcurveline
            -55 395 rmoveto
            -363 -659 rlineto
            48 hlineto
            123 229 rlineto
            251 hlineto
            26 -229 rlineto
            43 hlineto
            -81 659 rlineto
            return
          </CharString>
          <CharString index="4">
            -204 -6 -130 -53 -134 vvcurveto
            328 160 rmoveto
            -32 -159 rlineto
            -54 -61 -54 -26 -49 hhcurveto
            -52 -39 26 62 99 111 48 176 4 hvcurveto
            return
          </CharString>
          <CharString index="5">
            -62 -174 rmoveto
            -16 -33 rlineto
            -9 18 18 -3 11 hhcurveto
            88 55 80 80 42 hvcurveto
            296 539 rlineto
            -42 hlineto
            -162 -301 -26 -48 -25 -49 -24 -46 141 callsubr
            44 -8 53 -7 46 -47 301 rcurveline
            -41 hlineto
            81 -487 -21 -42 rlineto
            -81 -40 -50 -53 -57 hhcurveto
            -12 -11 3 6 -11 hvcurveto
            return
          </CharString>
          <CharString index="6">
            -19 -66 rlineto
            -4 hlineto
            47 -25 -43 31 -55 hhcurveto
            -127 -128 -145 -178 -111 57 -60 82 66 59 37 47 107 callgsubr
            -24 -108 rlineto
            -102 -22 -52 -67 -94 hhcurveto
            -59 -47 27 33 -36 hvcurveto
            -23 -30 rlineto
            -35 42 52 -31 69 hhcurveto
            111 72 72 118 24 hvcurveto
            return
          </CharString>
          <CharString index="7">
            16 100 rmoveto
            -73 47 72 -39 92 hhcurveto
            124 93 78 116 73 -41 45 -62 37 hvcurveto
            -83 48 rlineto
            -47 27 -40 33 61 vvcurveto
            62 54 66 86 69 52 -35 -43 33 vhcurveto
            30 26 rlineto
            49 -36 -63 40 -79 hhcurveto
            -112 -78 -80 -90 -72 49 -46 54 -32 hvcurveto
            85 -51 rlineto
            51 -29 34 -38 -56 vvcurveto
            -92 -73 -60 -95 -82 -59 36 62 -42 vhcurveto
            return
          </CharString>
          <CharString index="8">
            vstem
            -102 callgsubr
            return
          </CharString>
          <CharString index="9">
            rmoveto
            4 -14 1 -6 -11 vvcurveto
            -44 -50 -30 -57 -1 vhcurveto
            -11 hlineto
            -83 -417 rlineto
            -157 -31 -77 -60 -83 hhcurveto
            -102 -51 61 106 24 2 26 8 31 hvcurveto
            77 386 -28 callgsubr
            -78 -390 rlineto
            -6 -32 -3 -26 -27 vvcurveto
            -126 71 -70 121 105 94 65 183 37 vhcurveto
            80 396 rlineto
            78 11 41 47 51 vvcurveto
            13 -2 11 -7 15 vhcurveto
            endchar
          </CharString>
          <CharString index="10">
            rmoveto
            55 286 rlineto
            112 hlineto
            113 57 -31 -82 -107 -80 -66 -142 hvcurveto
            -95 322 rmoveto
            -131 -659 rlineto
            43 hlineto
            60 301 rlineto
            133 hlineto
            122 -301 rlineto
            48 hlineto
            -125 304 rlineto
            122 14 88 77 119 vvcurveto
            103 -75 42 -119 vhcurveto
            endchar
          </CharString>
          <CharString index="11">
            140 hmoveto
            43 hlineto
            54 268 273 391 rlineto
            -46 hlineto
            -144 -208 -32 -47 -31 -48 -32 -47 rlinecurve
            -4 hlineto
            -13 49 -11 45 -13 48 -55 208 rcurveline
            -44 hlineto
            109 -391 rlineto
            return
          </CharString>
          <CharString index="12">
            106 hmoveto
            54 hlineto
            209 453 23 53 24 49 20 53 rlinecurve
            4 hlineto
            -1 -53 1 -50 -52 vvcurveto
            14 -453 rlineto
            54 hlineto
            281 659 rlineto
            -44 hlineto
            -161 -389 -31 -72 -30 -72 -29 -72 rlinecurve
            -4 hlineto
            -1 72 -2 72 -3 72 -13 389 rcurveline
            -44 hlineto
            -181 -389 -31 -72 -34 -72 -33 -72 rlinecurve
            -4 hlineto
            2 72 -1 72 3 72 2 389 rcurveline
            -43 hlineto
            return
          </CharString>
          <CharString index="13">
            -8 hmoveto
            215 -78 callgsubr
            -88 hlineto
            118 585 rlineto
            87 -78 callgsubr
            -216 hlineto
            -8 -37 rlineto
            86 hlineto
            -118 -585 rlineto
            -84 hlineto
            return
          </CharString>
          <CharString index="14">
            -70 callsubr
            -18 -71 callsubr
            18 hvcurveto
            return
          </CharString>
          <CharString index="15">
            -33 -27 -18 -31 -29 vvcurveto
            -24 12 -26 22 -13 vhcurveto
            -2 vlineto
            -53 -26 -72 -45 -68 vvcurveto
            -81 84 -35 82 117 106 54 104 64 -44 31 -114 13 vhcurveto
            -75 8 -26 17 38 vvcurveto
            26 20 25 19 15 vhcurveto
            -8 16 16 -3 20 hhcurveto
            return
          </CharString>
          <CharString index="16">
            -93 callsubr
            endchar
          </CharString>
          <CharString index="17">
            -77 callsubr
            -21 -21 -19 -26 -19 15 -14 19 hvcurveto
            endchar
          </CharString>
          <CharString index="18">
            rmoveto
            19 17 18 23 19 -11 11 -18 -18 147 callsubr
            11 52 callsubr
            19 17 18 23 19 -11 11 -17 -19 147 callsubr
            12 -12 17 hvcurveto
            endchar
          </CharString>
          <CharString index="19">
            140 callsubr
            -149 75 -111 148 74 56 28 45 54 vhcurveto
            -23 28 rlineto
            -40 -48 -47 -24 -61 hhcurveto
            -129 -56 99 130 167 106 213 182 59 40 -34 -45 26 hvcurveto
            32 23 rlineto
            50 -31 -49 43 -74 hhcurveto
            -209 -125 -227 -196 hvcurveto
            return
          </CharString>
          <CharString index="20">
            139 callgsubr
            64 hhcurveto
            76 70 59 93 70 -46 44 -65 -21 -24 -6 -13 -20 hvcurveto
            36 124 rlineto
            164 126 callgsubr
            -196 hlineto
            -52 -183 16 -17 rlineto
            21 27 19 13 37 hhcurveto
            49 33 -34 -56 -70 -55 -45 -48 -60 -30 30 37 -19 hvcurveto
            return
          </CharString>
          <CharString index="21">
            -56 hhcurveto
            -133 -128 -146 -185 return
          </CharString>
          <CharString index="22">
            rmoveto
            -47 -28 32 49 65 43 45 47 46 43 -37 -88 hvcurveto
            -1 0 -2 -1 vvcurveto
            -43 -30 -41 -19 -33 hhcurveto
            -144 -160 rmoveto
            -21 23 31 -11 36 hhcurveto
            101 93 93 172 95 -58 54 -64 -64 -65 -53 -94 -58 40 -46 66 43 41 25 28 23 hvcurveto
            -119 -13 -70 -66 -71 hhcurveto
            -28 -23 8 18 -18 hvcurveto
            endchar
          </CharString>
          <CharString index="23">
            -11 -76 rlineto
            35 -23 callgsubr
            -34 hlineto
            return
          </CharString>
          <CharString index="24">
            19 25 21 -15 13 return
          </CharString>
          <CharString index="25">
            313 721 rmoveto
            4 -14 0 -7 -10 vvcurveto
            -46 -48 -28 -59 -2 vhcurveto
            21 -32 -38 11 -46 hhcurveto
            -195 -118 -226 -183 -161 72 -113 144 hvcurveto
            return
          </CharString>
          <CharString index="26">
            -112 56 -61 84 66 62 37 51 49 return
          </CharString>
          <CharString index="27">
            rmoveto
            24 16 20 22 17 -13 13 -16 -22 -18 -21 -20 -20 13 -11 16 hvcurveto
            153 hmoveto
            22 56 callsubr
            -24 -15 -21 -20 -20 11 -11 18 hvcurveto
            return
          </CharString>
          <CharString index="28">
            57 -276 rmoveto
            20 -4 22 -4 18 -2 rrcurveto
            96 -10 40 -22 -48 vvcurveto
            -64 -78 -52 -101 -69 -62 27 64 49 65 45 49 21 vhcurveto
            return
          </CharString>
          <CharString index="29">
            14 -24 -29 8 -33 hhcurveto
            -130 -123 -134 -180 -120 64 -70 98 131 123 135 179 62 -17 48 -30 33 hvcurveto
            return
          </CharString>
          <CharString index="30">
            -83 callsubr
            -19 return
          </CharString>
          <CharString index="31">
            hintmask 11001000
            -44 callsubr
            63 318 rlineto
            86 43 61 49 51 hhcurveto
            18 11 -4 -4 9 hvcurveto
            hintmask 10011000
            16 39 rlineto
            hintmask 11001000
            6 -16 -14 2 -13 hhcurveto
            -62 -49 -46 -57 -40 hvcurveto
            -4 hlineto
            hintmask 10101000
            15 91 rlineto
            -34 hlineto
            return
          </CharString>
          <CharString index="32">
            38 hlineto
            81 68 53 callgsubr
            -68 rlineto
            35 hlineto
            -70 98 rlineto
            return
          </CharString>
          <CharString index="33">
            rmoveto
            98 111 71 82 -27 callgsubr
            -25 -101 -18 -92 rlineto
            91 hmoveto
            -58 hlineto
            49 245 rlineto
            -31 hlineto
            -224 -252 -4 -22 rlineto
            171 hlineto
            -23 -116 rlineto
            33 hlineto
            23 116 rlineto
            57 hlineto
            endchar
          </CharString>
          <CharString index="34">
            -72 callsubr
            hintmask 11111010
            -82 callsubr
            return
          </CharString>
          <CharString index="35">
            rmoveto
            -123 -52 99 143 -45 callsubr
            hvcurveto
            return
          </CharString>
          <CharString index="36">
            -22 -20 -19 -26 -19 15 -14 return
          </CharString>
          <CharString index="37">
            22 20 -83 callsubr
            return
          </CharString>
          <CharString index="38">
            hlineto
            87 74 rlineto
            -71 callgsubr
            return
          </CharString>
          <CharString index="39">
            19 -25 callgsubr
            -19 146 callsubr
            return
          </CharString>
          <CharString index="40">
            134 450 rmoveto
            56 35 -43 -64 -85 -66 -80 -85 -57 -34 43 63 86 65 80 86 hvcurveto
            return
          </CharString>
          <CharString index="41">
            138 104 142 108 45 37 -25 -62 37 vhcurveto
            -50 -237 rlineto
            return
          </CharString>
          <CharString index="42">
            -22 -54 callgsubr
            return
          </CharString>
          <CharString index="43">
            -12 -57 callgsubr
            return
          </CharString>
          <CharString index="44">
            rmoveto
            -83 callgsubr
            151 hmoveto
            -83 callgsubr
            endchar
          </CharString>
          <CharString index="45">
            77 callgsubr
            -49 hhcurveto
            -48 -19 35 52 4 hvcurveto
            -28 hlineto
            -55 return
          </CharString>
          <CharString index="46">
            73 444 rmoveto
            62 hlineto
            -88 -444 rlineto
            41 hlineto
            88 444 rlineto
            106 hlineto
            8 36 rlineto
            -106 hlineto
            22 110 rlineto
            58 12 31 47 48 hhcurveto
            25 17 -8 -9 15 hvcurveto
            return
          </CharString>
          <CharString index="47">
            rmoveto
            37 hlineto
            129 136 rlineto
            -50 hlineto
            endchar
          </CharString>
          <CharString index="48">
            19 callsubr
            -56 -23 callsubr
            66 9 65 27 59 vvcurveto
            32 return
          </CharString>
          <CharString index="49">
            -7 callsubr
            -43 -19 -57 -8 callgsubr
            return
          </CharString>
          <CharString index="50">
            -49 -83 36 63 -21 176 36 341 35 hstem
            52 39 291 40 vstem
            216 207 rmoveto
            -79 -46 59 91 101 79 90 85 79 48 -75 -104 -25 -1 -24 -3 -24 hvcurveto
            -71 -59 -67 -18 -36 hhcurveto
            -209 -212 rmoveto
            -46 26 39 -32 63 hhcurveto
            163 124 195 261 122 -62 88 -103 -115 -90 -105 -131 -106 64 -70 94 49 62 24 52 50 hvcurveto
            -171 -30 -94 -123 -110 hhcurveto
            -44 -31 22 42 -24 hvcurveto
            endchar
          </CharString>
          <CharString index="51">
            vstem
            -44 callsubr
            25 125 131 133 104 -258 rlineto
            43 hlineto
            -116 285 188 195 rlineto
            -50 hlineto
            -284 -290 rlineto
            -3 hlineto
            return
          </CharString>
          <CharString index="52">
            rmoveto
            36 hlineto
            93 93 callsubr
            53 -98 rlineto
            32 hlineto
            -67 38 callgsubr
            return
          </CharString>
          <CharString index="53">
            rmoveto
            47 -6 16 -12 -25 vvcurveto
            -27 -19 -18 -47 -14 vhcurveto
            7 -23 rlineto
            56 16 37 25 49 vvcurveto
            33 -30 24 -61 4 vhcurveto
            -211 -207 18 callsubr
          </CharString>
          <CharString index="54">
            rmoveto
            hintmask 01100000
            55 26 40 45 57 vvcurveto
            28 -13 18 -20 -20 -18 -13 -26 -19 13 -11 16 vhcurveto
            2 1 0 2 hhcurveto
            -7 -37 -26 -24 -35 -18 rrcurveto
            endchar
          </CharString>
          <CharString index="55">
            77 callsubr
            131 659 -28 callgsubr
            return
          </CharString>
          <CharString index="56">
            27 callgsubr
            endchar
          </CharString>
          <CharString index="57">
            vstem
            176 hmoveto
            43 hlineto
            124 620 rlineto
            202 hlineto
            8 39 rlineto
            -447 hlineto
            -8 -39 rlineto
            202 hlineto
            return
          </CharString>
          <CharString index="58">
            105 521 rlineto
            -288 -445 rmoveto
            -65 -40 47 94 hvcurveto
            return
          </CharString>
          <CharString index="59">
            -12 -6 callsubr
            return
          </CharString>
          <CharString index="60">
            rmoveto
            101 114 44 101 130 vvcurveto
            69 -14 66 -26 53 vhcurveto
            -25 -15 rlineto
            23 -48 8 -69 -54 vvcurveto
            -115 -40 -107 -93 -109 vhcurveto
            endchar
          </CharString>
          <CharString index="61">
            rmoveto
            -48 callgsubr
            return
          </CharString>
          <CharString index="62">
            -70 callgsubr
            123 53 -99 -143 -155 -98 -212 -169 return
          </CharString>
          <CharString index="63">
            40 hmoveto
            42 hlineto
            return
          </CharString>
          <CharString index="64">
            -14 callsubr
            -76 -116 -60 -151 -115 -82 37 -66 76 hvcurveto
            60 383 rmoveto
            58 22 -54 -68 -94 -47 -136 -90 -58 -22 54 68 95 47 135 90 hvcurveto
            return
          </CharString>
          <CharString index="65">
            84 0 36 298 31 258 36 hstem
            526 43 vstem
            106 36 rmoveto
            59 298 rlineto
            164 126 callgsubr
            -164 hlineto
            51 258 rlineto
            72 hlineto
            155 76 -90 -133 -199 -112 -165 -196 hvcurveto
            -30 623 rmoveto
            -58 -294 -71 -2 -7 -29 rlineto
            71 hlineto
            -66 -334 rlineto
            160 hlineto
            229 123 175 228 154 -90 102 -182 hvcurveto
            endchar
          </CharString>
          <CharString index="66">
            hhcurveto
            45 27 -26 -40 -42 -38 -47 -98 hvcurveto
            -7 -29 rlineto
            hintmask 11110000
            80 39 -39 -44 -55 -45 -30 -52 -51 -30 30 37 -19 hvcurveto
            endchar
          </CharString>
          <CharString index="67">
            37 294 72 callgsubr
            return
          </CharString>
          <CharString index="68">
            -163 52 callgsubr
            63 378 rmoveto
            -77 38 -40 56 44 40 23 36 34 vhcurveto
            4 hlineto
            -9 -51 rlineto
            28 hlineto
            63 318 rlineto
            -27 hlineto
            24 callgsubr
            -120 hvcurveto
            100 -86 -30 callgsubr
          </CharString>
          <CharString index="69">
            41 callsubr
            -218 hlineto
            endchar
          </CharString>
          <CharString index="70">
            rmoveto
            34 11 18 24 24 hhcurveto
            hintmask 11111000
            39 14 -60 46 hhcurveto
            42 35 101 callgsubr
            -12 -17 27 callsubr
          </CharString>
          <CharString index="71">
            -16 vhcurveto
            8 -24 rlineto
            -29 callsubr
            33 -29 27 -73 4 vhcurveto
            endchar
          </CharString>
          <CharString index="72">
            -21 480 -20 return
          </CharString>
          <CharString index="73">
            -49 102 35 372 62 0 -20 hstemhm
            -13 425 hintmask 10110000
            46 137 rmoveto
            hintmask 11010000
            234 274 24 28 27 34 28 36 rlinecurve
            4 hlineto
            -10 -43 -12 -43 -7 -33 -50 -253 rcurveline
            128 hmoveto
            -89 hlineto
            87 434 rlineto
            -37 hlineto
            -382 -444 -4 -25 rlineto
            290 hlineto
            -35 -173 rlineto
            40 hlineto
            34 173 rlineto
            88 hlineto
            endchar
          </CharString>
          <CharString index="74">
            -6 21 -8 -25 vvcurveto
            -35 -44 -19 -57 41 callgsubr
            64 48 callsubr
          </CharString>
          <CharString index="75">
            rmoveto
            -68 callsubr
            11 -12 19 hvcurveto
            151 hmoveto
            -66 callgsubr
            endchar
          </CharString>
          <CharString index="76">
            272 552 rmoveto
            4 -13 1 -7 -10 vvcurveto
            -47 -47 -27 -57 -2 vhcurveto
            return
          </CharString>
          <CharString index="77">
            rmoveto
            -36 hlineto
            -93 134 callsubr
            -31 hlineto
            67 -136 rlineto
            29 hlineto
            endchar
          </CharString>
          <CharString index="78">
            61 17 45 26 53 vvcurveto
            return
          </CharString>
          <CharString index="79">
            -49 -12 36 523 36 hstem
            41 40 312 40 vstem
            191 -12 rmoveto
            143 99 212 183 121 -57 79 -92 -144 -99 -212 -183 -121 57 -79 93 hvcurveto
            89 559 rmoveto
            72 41 -61 -109 -158 -86 -195 -112 -73 -41 61 109 158 86 195 113 hvcurveto
            endchar
          </CharString>
          <CharString index="80">
            -39 callgsubr
            -29 hlineto
            -49 -17 -37 -39 -49 hhcurveto
            -50 return
          </CharString>
          <CharString index="81">
            -49 -231 33 351 33 259 35 -22 34 return
          </CharString>
          <CharString index="82">
            rlineto
            -41 hlineto
            return
          </CharString>
          <CharString index="83">
            rmoveto
            21 21 58 callsubr
            141 callgsubr
            -20 15 -13 19 hvcurveto
            endchar
          </CharString>
          <CharString index="84">
            -11 vhcurveto
            4 -24 rlineto
            return
          </CharString>
          <CharString index="85">
            39 14 -60 46 hhcurveto
            43 34 101 callgsubr
            -11 -18 -24 -24 hhcurveto
            return
          </CharString>
          <CharString index="86">
            hlineto
            56 -74 rlineto
            35 hlineto
            return
          </CharString>
          <CharString index="87">
            -333 rmoveto
            -86 48 -47 75 41 35 17 15 25 vhcurveto
            -14 27 rlineto
            -14 -22 -26 -15 -34 hhcurveto
            -69 -34 52 80 13 hvcurveto
            221 hlineto
            6 15 5 20 23 vvcurveto
            56 -23 58 -78 -83 -86 -83 -118 vhcurveto
            44 57 rmoveto
            67 16 56 47 50 hhcurveto
            51 20 -40 -42 -9 0 -10 -3 -13 hvcurveto
            endchar
          </CharString>
          <CharString index="88">
            8 -17 -15 4 -22 hhcurveto
            -113 -82 -91 -117 hvcurveto
            return
          </CharString>
          <CharString index="89">
            21 -21 659 -20 return
          </CharString>
          <CharString index="90">
            rmoveto
            216 140 199 189 164 -105 112 -154 -216 -140 -198 -189 -164 105 -113 154 hvcurveto
            95 636 rmoveto
            141 90 -100 -152 -167 -129 -188 -195 -141 -90 100 152 167 129 188 195 hvcurveto
            endchar
          </CharString>
          <CharString index="91">
            rmoveto
            38 hlineto
            122 104 rlineto
            -51 hlineto
            endchar
          </CharString>
          <CharString index="92">
            rmoveto
            39 hlineto
            81 68 53 callgsubr
            -68 rlineto
            34 hlineto
            -69 98 rlineto
            -36 hlineto
            return
          </CharString>
          <CharString index="93">
            116 60 151 116 82 -37 65 return
          </CharString>
          <CharString index="94">
            88 callgsubr
            -11 27 rlineto
            -8 -14 82 callsubr
            return
          </CharString>
          <CharString index="95">
            hintmask 10111100
            -10 callgsubr
            return
          </CharString>
          <CharString index="96">
            3 callgsubr
            endchar
          </CharString>
          <CharString index="97">
            -169 261 30 273 31 hstem
            63 34 216 34 vstem
            173 261 rmoveto
            86 88 82 126 79 -42 47 -69 -85 -88 -82 -126 -80 42 -46 68 hvcurveto
            61 303 rmoveto
            51 28 -36 -63 -93 -66 -81 -71 -51 -28 37 62 93 66 81 71 hvcurveto
            endchar
          </CharString>
          <CharString index="98">
            138 callsubr
            -11 12 -19 97 callgsubr
            return
          </CharString>
          <CharString index="99">
            -23 16 -11 21 vhcurveto
            1 2 0 1 hhcurveto
            -1 -42 -29 -45 -54 -31 rrcurveto
            return
          </CharString>
          <CharString index="100">
            rmoveto
            20 -6 21 -8 -25 vvcurveto
            -35 return
          </CharString>
          <CharString index="101">
            37 609 37 return
          </CharString>
          <CharString index="102">
            148 callgsubr
            -30 hlineto
            -35 -14 -30 -38 -48 hhcurveto
            -50 -18 36 37 2 hvcurveto
            -28 hlineto
            -45 return
          </CharString>
          <CharString index="103">
            rmoveto
            -36 hlineto
            -109 -96 rlineto
            38 hlineto
            82 64 -27 callgsubr
            60 -64 rlineto
            31 hlineto
            -167 134 57 callgsubr
            return
          </CharString>
          <CharString index="104">
            75 11 38 86 callgsubr
            -7 15 vhcurveto
            endchar
          </CharString>
          <CharString index="105">
            rmoveto
            150 113 238 213 104 -48 108 -106 -151 -113 -239 -214 -106 47 -104 108 hvcurveto
            106 628 rmoveto
            83 34 -85 -96 -177 -95 -234 -127 -83 -33 84 94 176 94 238 127 hvcurveto
            endchar
          </CharString>
          <CharString index="106">
            rmoveto
            217 hlineto
            7 34 rlineto
            -217 hlineto
            endchar
          </CharString>
          <CharString index="107">
            -39 callgsubr
            -29 hlineto
            -49 -18 -37 -39 -49 hhcurveto
            -49 -20 35 53 4 hvcurveto
            -26 hlineto
            -55 -6 17 -62 77 hhcurveto
            return
          </CharString>
          <CharString index="108">
            rmoveto
            23 19 18 26 17 -13 14 -16 -22 -20 -20 -24 117 callsubr
          </CharString>
          <CharString index="109">
            hlineto
            92 74 callsubr
            32 hlineto
            -68 136 rlineto
            return
          </CharString>
          <CharString index="110">
            hintmask 11001100
            -44 callsubr
            63 318 rlineto
            86 43 61 49 51 hhcurveto
            18 11 -4 -4 9 hvcurveto
            hintmask 10011100
            16 39 rlineto
            hintmask 11001100
            6 -16 -14 2 -13 hhcurveto
            -62 -49 -46 -57 -40 hvcurveto
            -4 hlineto
            hintmask 10101100
            15 91 rlineto
            -34 hlineto
            return
          </CharString>
          <CharString index="111">
            -26 42 hvcurveto
            14 148 rmoveto
            29 17 -22 -32 -37 -27 -32 -31 -29 -17 22 32 37 27 32 31 hvcurveto
            endchar
          </CharString>
          <CharString index="112">
            12 -20 -22 10 -33 hhcurveto
            -63 -49 -46 -95 -20 hvcurveto
            -22 -110 -64 -4 rlineto
            return
          </CharString>
          <CharString index="113">
            rmoveto
            27 hlineto
            33 11 14 21 24 hhcurveto
            hintmask 11110000
            40 callsubr
            -27 hlineto
            -33 -11 -14 -21 -24 hhcurveto
            hintmask 10110000
            -38 -15 56 -46 hhcurveto
            -40 -30 -41 -43 -9 hvcurveto
            endchar
          </CharString>
          <CharString index="114">
            20 17 19 22 20 -12 11 -17 -20 -17 -18 -24 -19 11 -11 18 hvcurveto
            return
          </CharString>
          <CharString index="115">
            vstem
            334 172 rmoveto
            97 487 -28 callgsubr
            -96 -482 rlineto
            -91 -18 -48 -61 -75 hhcurveto
            -60 -39 28 57 -18 hvcurveto
            -33 -20 rlineto
            -59 22 47 -43 80 hhcurveto
            99 65 73 111 20 hvcurveto
            return
          </CharString>
          <CharString index="116">
            rmoveto
            -33 -11 -14 -21 -24 hhcurveto
            hintmask 11110110
            -38 -15 56 -46 hhcurveto
            -40 -30 -41 -43 -9 hvcurveto
            27 hlineto
            33 11 14 21 24 hhcurveto
            hintmask 11111110
            40 callsubr
            endchar
          </CharString>
          <CharString index="117">
            rmoveto
            -14 callsubr
            return
          </CharString>
          <CharString index="118">
            -291 50 callgsubr
            return
          </CharString>
          <CharString index="119">
            140 callgsubr
            145 719 -25 callsubr
            -42 -209 rlineto
            return
          </CharString>
          <CharString index="120">
            rmoveto
            7 callsubr
            152 hmoveto
            -83 callgsubr
            endchar
          </CharString>
          <CharString index="121">
            -103 callsubr
            hintmask 1011111110000000
            return
          </CharString>
          <CharString index="122">
            -66 callgsubr
            151 hmoveto
            20 -25 callgsubr
            -20 39 callgsubr
            endchar
          </CharString>
          <CharString index="123">
            -42 31 -86 callsubr
            return
          </CharString>
          <CharString index="124">
            21 37 callgsubr
            return
          </CharString>
          <CharString index="125">
            -40 callgsubr
            endchar
          </CharString>
          <CharString index="126">
            -7 callsubr
            -44 -19 return
          </CharString>
          <CharString index="127">
            -24 -151 rmoveto
            hintmask 01100000
            77 28 58 70 80 vvcurveto
            29 -14 20 -25 -28 -18 -25 -23 -21 15 -14 21 vhcurveto
            1 2 0 2 hhcurveto
            -8 -49 -38 -41 -54 -24 rrcurveto
            return
          </CharString>
          <CharString index="128">
            26 callgsubr
            endchar
          </CharString>
          <CharString index="129">
            vstem
            190 -12 rmoveto
            145 108 238 213 108 -46 104 -98 -145 -109 -239 -214 -109 44 -101 101 hvcurveto
            106 628 rmoveto
            return
          </CharString>
          <CharString index="130">
            rmoveto
            40 hlineto
            87 74 rlineto
            3 -21 callsubr
            -71 93 callgsubr
            endchar
          </CharString>
          <CharString index="131">
            -42 29 -21 40 18 23 6 11 19 vhcurveto
            -12 28 134 callgsubr
            return
          </CharString>
          <CharString index="132">
            75 -44 callgsubr
            46 116 rmoveto
            -93 callsubr
            return
          </CharString>
          <CharString index="133">
            hlineto
            117 138 rlineto
            -47 hlineto
            return
          </CharString>
          <CharString index="134">
            -24 -24 hhcurveto
            hintmask 11011000
            -11 callsubr
          </CharString>
          <CharString index="135">
            127 218 -27 callgsubr
            -26 -104 -32 -162 rlineto
            35 hlineto
            62 307 rlineto
            -50 hlineto
            -77 -127 -46 -86 rlineto
            -4 hlineto
            -13 86 return
          </CharString>
          <CharString index="136">
            286 88 hstem
            81 80 vstem
            114 286 rmoveto
            27 20 25 25 21 -10 17 -21 -26 -23 -28 -25 60 callsubr
          </CharString>
          <CharString index="137">
            128 callgsubr
            -37 -38 -48 hhcurveto
            -48 -19 35 52 4 hvcurveto
            -29 89 callgsubr
            78 hhcurveto
            endchar
          </CharString>
          <CharString index="138">
            27 20 25 26 21 -10 16 -21 -27 -22 return
          </CharString>
          <CharString index="139">
            hhcurveto
            -43 -34 125 callsubr
            return
          </CharString>
          <CharString index="140">
            -122 -12 35 434 35 return
          </CharString>
          <CharString index="141">
            -44 -4 21 -56 71 hhcurveto
            72 43 55 45 13 hvcurveto
            return
          </CharString>
          <CharString index="142">
            -36 -14 -32 -35 -50 hhcurveto
            -47 -19 33 38 2 hvcurveto
            return
          </CharString>
          <CharString index="143">
            hstemhm
            38 41 300 41 return
          </CharString>
          <CharString index="144">
            vstem
            122 481 rmoveto
            29 hlineto
            54 139 23 73 rlineto
            -39 hlineto
            return
          </CharString>
          <CharString index="145">
            hlineto
            -365 -424 -4 -26 rlineto
            277 hlineto
            -38 -189 rlineto
            -180 225 rmoveto
            hintmask 11101000
            217 254 24 29 return
          </CharString>
          <CharString index="146">
            -21 453 39 -12 -20 24 8 return
          </CharString>
          <CharString index="147">
            38 19 callgsubr
            return
          </CharString>
          <CharString index="148">
            72 callsubr
            6 34 rlineto
            return
          </CharString>
          <CharString index="149">
            -21 301 36 286 36 return
          </CharString>
          <CharString index="150">
            hstemhm
            139 callsubr
            return
          </CharString>
          <CharString index="151">
            -25 callsubr
            -62 return
          </CharString>
          <CharString index="152">
            -14 -25 vvcurveto
            -31 -27 -16 -51 -17 vhcurveto
            7 -24 rlineto
            -29 callsubr
            34 -29 26 -73 4 vhcurveto
            endchar
          </CharString>
          <CharString index="153">
            701 rmoveto
            -29 callsubr
            33 -29 27 -73 4 vhcurveto
            -7 -28 rlineto
            -6 callgsubr
            return
          </CharString>
          <CharString index="154">
            87 callsubr
            25 -138 87 callsubr
            endchar
          </CharString>
          <CharString index="155">
            27 59 vvcurveto
            32 -27 16 -34 10 vhcurveto
            endchar
          </CharString>
          <CharString index="156">
            -490 -684 rlineto
            return
          </CharString>
          <CharString index="157">
            -11 -13 -25 hvcurveto
            62 226 rlineto
            238 hlineto
            8 36 rlineto
            -275 hlineto
            -80 -291 22 -17 rlineto
            22 return
          </CharString>
          <CharString index="158">
            36 21 35 123 36 -6 35 hintmask 11101000
            return
          </CharString>
          <CharString index="159">
            -12 18 hvcurveto
            151 hmoveto
            return
          </CharString>
          <CharString index="160">
            vstem
            142 72 rmoveto
            24 15 -88 164 146 159 -19 20 -158 -154 -7 -40 rlineto
            return
          </CharString>
          <CharString index="161">
            -42 29 -21 40 18 22 7 11 20 vhcurveto
            -12 27 rlineto
            -8 -14 -11 -4 -16 hhcurveto
            -21 -16 15 25 return
          </CharString>
          <CharString index="162">
            -6 -12 36 432 14 -14 36 return
          </CharString>
          <CharString index="163">
            17 20 22 17 -13 13 -16 return
          </CharString>
          <CharString index="164">
            89 callgsubr
            77 hhcurveto
            return
          </CharString>
          <CharString index="165">
            119 callsubr
            14 return
          </CharString>
          <CharString index="166">
            rmoveto
            -65 callgsubr
            endchar
          </CharString>
          <CharString index="167">
            -19 12 -16 21 hvcurveto
            endchar
          </CharString>
          <CharString index="168">
            -12 31 239 31 82 31 239 31 hstem
            66 37 216 37 82 36 217 36 return
          </CharString>
          <CharString index="169">
            rmoveto
            -37 hlineto
            -92 134 callsubr
            -32 hlineto
            68 -136 rlineto
            29 hlineto
            endchar
          </CharString>
          <CharString index="170">
            -145 -105 -143 -114 -45 -38 return
          </CharString>
          <CharString index="171">
            100 callsubr
            -14 hvcurveto
            return
          </CharString>
          <CharString index="172">
            18 23 7 11 19 vhcurveto
            return
          </CharString>
          <CharString index="173">
            11 76 rlineto
            -34 hlineto
            return
          </CharString>
          <CharString index="174">
            -193 270 30 132 28 114 30 41 91 hstem
            64 35 202 33 vstem
            return
          </CharString>
          <CharString index="175">
            -224 232 37 hstem
            36 217 vstem
            36 232 rmoveto
            209 -78 callgsubr
            return
          </CharString>
          <CharString index="176">
            rmoveto
            18 14 15 18 16 -12 11 -14 -18 -14 -16 -17 -16 12 -11 14 hvcurveto
            endchar
          </CharString>
          <CharString index="177">
            rmoveto
            22 20 58 callsubr
            -18 -22 -20 -19 -26 -20 15 -13 18 hvcurveto
            endchar
          </CharString>
          <CharString index="178">
            rmoveto
            38 hlineto
            128 136 rlineto
            -50 hlineto
            endchar
          </CharString>
          <CharString index="179">
            rmoveto
            218 hlineto
            return
          </CharString>
          <CharString index="180">
            64 rmoveto
            -83 callgsubr
            return
          </CharString>
          <CharString index="181">
            98 53 callgsubr
            -98 rlineto
            return
          </CharString>
          <CharString index="182">
            -289 21 -21 719 -20 return
          </CharString>
          <CharString index="183">
            31 168 29 155 31 return
          </CharString>
          <CharString index="184">
            vstem
            39 hmoveto
            43 hlineto
            return
          </CharString>
          <CharString index="185">
            80 rmoveto
            -41 21 44 -39 62 hhcurveto
            71 63 44 77 34 -24 40 -50 15 hvcurveto
            return
          </CharString>
          <CharString index="186">
            rmoveto
            39 hlineto
            122 104 rlineto
            -52 hlineto
            endchar
          </CharString>
          <CharString index="187">
            136 callsubr
            -46 hlineto
            endchar
          </CharString>
          <CharString index="188">
            -12 36 592 35 hstem
            45 40 return
          </CharString>
          <CharString index="189">
            -12 -4 -15 hhcurveto
            -22 -16 15 25 return
          </CharString>
          <CharString index="190">
            12 callgsubr
            hstem
            return
          </CharString>
          <CharString index="191">
            14 72 -25 callsubr
            -13 -72 rlineto
            return
          </CharString>
          <CharString index="192">
            -71 0 37 622 -20 return
          </CharString>
          <CharString index="193">
            21 15 18 21 21 -15 16 -21 -21 -15 -16 -21 -21 15 -18 21 hvcurveto
            return
          </CharString>
          <CharString index="194">
            rmoveto
            34 26 callsubr
            return
          </CharString>
          <CharString index="195">
            44 41 333 42 return
          </CharString>
          <CharString index="196">
            804 rmoveto
            -34 -11 -18 -24 -24 hhcurveto
            hintmask 11011100
            -39 -14 60 -46 hhcurveto
            return
          </CharString>
          <CharString index="197">
            13 41 -22 hvcurveto
            32 162 rlineto
            34 36 42 22 38 hhcurveto
            endchar
          </CharString>
          <CharString index="198">
            rmoveto
            36 hlineto
            -76 104 rlineto
            -47 hlineto
            endchar
          </CharString>
          <CharString index="199">
            11 -6 15 vhcurveto
            endchar
          </CharString>
          <CharString index="200">
            98 -27 callgsubr
            return
          </CharString>
          <CharString index="201">
            -64 -53 -30 -48 -57 vhcurveto
            24 -29 rlineto
            47 48 52 24 46 hhcurveto
            return
          </CharString>
          <CharString index="202">
            -144 -719 rlineto
            292 456 rmoveto
            66 42 -48 -96 hvcurveto
            return
          </CharString>
          <CharString index="203">
            rrcurveto
            hintmask 10110000
            -6 -28 rlineto
            113 hlineto
            return
          </CharString>
          <CharString index="204">
            rmoveto
            -40 hlineto
            60 -111 rlineto
            31 hlineto
            return
          </CharString>
          <CharString index="205">
            -196 -21 205 36 432 36 return
          </CharString>
          <CharString index="206">
            -279 -12 36 -8 -21 724 -20 return
          </CharString>
          <CharString index="207">
            58 -56 hhcurveto
            -39 -27 -42 -46 return
          </CharString>
          <CharString index="208">
            -6 0 37 585 37 hstem
            return
          </CharString>
          <CharString index="209">
            55 45 13 hvcurveto
            -29 hlineto
            -36 return
          </CharString>
          <CharString index="210">
            -14 -25 vvcurveto
            -31 -27 -17 return
          </CharString>
          <CharString index="211">
            34 12 17 24 24 hhcurveto
            return
          </CharString>
          <CharString index="212">
            94 0 57 548 54 return
          </CharString>
          <CharString index="213">
            -18 callsubr
            hstem
            return
          </CharString>
          <CharString index="214">
            hlineto
            hintmask 11011000
            27 133 -28 callgsubr
            hintmask 11101000
            -27 -133 return
          </CharString>
          <CharString index="215">
            -49 212 34 168 34 hstem
            48 394 vstem
            442 return
          </CharString>
          <CharString index="216">
            -291 -203 33 191 -35 callsubr
            hstem
            -43 38 return
          </CharString>
          <CharString index="217">
            hlineto
            62 310 rlineto
            6 28 2 13 24 vvcurveto
            70 -33 47 return
          </CharString>
          <CharString index="218">
            32 28 32 hstemhm
            return
          </CharString>
          <CharString index="219">
            -57 callgsubr
            227 -20 hstemhm
            440 41 return
          </CharString>
          <CharString index="220">
            -38 -6 49 -53 hhcurveto
            -33 -30 -36 -41 -11 hvcurveto
            endchar
          </CharString>
          <CharString index="221">
            rlineto
            -33 hlineto
            hintmask 11010000
            -32 -19 -46 return
          </CharString>
          <CharString index="222">
            rmoveto
            -39 hlineto
            62 -106 rlineto
            29 hlineto
            return
          </CharString>
          <CharString index="223">
            -291 -229 36 673 -20 return
          </CharString>
          <CharString index="224">
            -20 11 -11 18 hvcurveto
            endchar
          </CharString>
          <CharString index="225">
            hhcurveto
            39 27 43 45 return
          </CharString>
          <CharString index="226">
            18 25 21 -15 return
          </CharString>
          <CharString index="227">
            -49 21 -21 189 36 352 62 0 -20 hstemhm
            return
          </CharString>
          <CharString index="228">
            42 callsubr
            hstem
            487 43 vstem
            return
          </CharString>
          <CharString index="229">
            rmoveto
            34 -394 -34 vlineto
            return
          </CharString>
          <CharString index="230">
            -157 34 144 -21 return
          </CharString>
          <CharString index="231">
            52 54 70 37 53 hhcurveto
            return
          </CharString>
          <CharString index="232">
            -46 -44 -9 hvcurveto
            return
          </CharString>
          <CharString index="233">
            rmoveto
            31 callsubr
            return
          </CharString>
          <CharString index="234">
            22 -17 rlineto
            22 41 28 13 46 hhcurveto
            79 53 return
          </CharString>
          <CharString index="235">
            21 -21 444 36 215 36 0 -20 hstemhm
            return
          </CharString>
          <CharString index="236">
            hhcurveto
            90 86 96 121 76 -38 41 -56 -44 return
          </CharString>
          <CharString index="237">
            112 104 rlineto
            -39 hlineto
            -87 -74 rlineto
            -4 hlineto
            return
          </CharString>
          <CharString index="238">
            39 43 callgsubr
            return
          </CharString>
          <CharString index="239">
            rlineto
            -153 hlineto
            -5 -28 rlineto
            return
          </CharString>
          <CharString index="240">
            -42 -51 -51 32 -24 42 hvcurveto
            return
          </CharString>
          <CharString index="241">
            -97 rlineto
            -4 hlineto
            -54 97 rlineto
            return
          </CharString>
          <CharString index="242">
            -212 -12 36 420 36 return
          </CharString>
          <CharString index="243">
            rmoveto
            32 hlineto
            -59 136 rlineto
            return
          </CharString>
          <CharString index="244">
            104 callgsubr
            hstem
            return
          </CharString>
          <CharString index="245">
            19 18 18 23 20 return
          </CharString>
          <CharString index="246">
            61 44 442 43 return
          </CharString>
          <CharString index="247">
            vstem
            58 248 rmoveto
            return
          </CharString>
          <CharString index="248">
            rlinecurve
            -4 hlineto
            -5 return
          </CharString>
          <CharString index="249">
            271 17 callsubr
            hstemhm
            return
          </CharString>
          <CharString index="250">
            rmoveto
            217 126 callgsubr
            -217 hlineto
            return
          </CharString>
          <CharString index="251">
            -65 callsubr
            hstem
            return
          </CharString>
          <CharString index="252">
            50 vstem
            442 hmoveto
            35 -394 -35 vlineto
            return
          </CharString>
          <CharString index="253">
            -18 -18 -25 -18 return
          </CharString>
          <CharString index="254">
            -18 -18 -24 -17 return
          </CharString>
        <CharString name=".notdef">
          97 0 39 582 39 hstem
          40 557 vstem
          40 hmoveto
          427 hlineto
          130 660 rlineto
          -427 hlineto
          123 -320 rmoveto
          -190 -259 102 520 rlineto
          146 -261 rmoveto
          194 261 -107 -520 rlineto
          -204 123 rmoveto
          79 103 -27 callgsubr
          37 -103 56 -165 rlineto
          -299 hlineto
          218 330 rmoveto
          -4 hlineto
          -33 93 -51 159 rlineto
          275 hlineto
          -116 -159 rlineto
          endchar
        </CharString>
        <CharString name="A">
          -74 callgsubr
          hstem
          -48 491 vstem
          142 264 -77 callgsubr
        </CharString>
        <CharString name="AE">
          271 0 37 180 36 78 72 callgsubr
          hstem
          -32 842 vstem
          395 253 rmoveto
          -195 hlineto
          98 136 56 78 55 77 56 78 rlinecurve
          4 hlineto
          333 hmoveto
          8 37 rlineto
          -361 hlineto
          -481 -659 rlineto
          50 hlineto
          156 217 rlineto
          214 hlineto
          -43 -217 rlineto
          342 -78 callgsubr
          -301 hlineto
          60 294 rlineto
          243 -78 callgsubr
          -245 hlineto
          51 254 rlineto
          endchar
        </CharString>
        <CharString name="Aacute">
          -74 callgsubr
          50 104 hstem
          -48 508 vstem
          460 813 rmoveto
          -51 hlineto
          -109 -104 rlineto
          38 hlineto
          -196 -445 -104 callsubr
          endchar
        </CharString>
        <CharString name="Abreve">
          -74 callgsubr
          50 31 hstem
          247 28 vstem
          433 813 rmoveto
          -35 -14 5 callgsubr
          72 41 148 callgsubr
          -321 -549 -104 callsubr
          endchar
        </CharString>
        <CharString name="Acircumflex">
          -74 callgsubr
          123 30 hstem
          -48 494 vstem
          351 782 rmoveto
          -71 callgsubr
          -112 -104 rlineto
          39 hlineto
          -122 -444 -104 callsubr
          endchar
        </CharString>
        <CharString name="Adieresis">
          -74 callgsubr
          64 72 hstem
          237 66 85 67 vstem
          418 723 rmoveto
          -83 callgsubr
          -152 hmoveto
          7 callsubr
          -124 -459 -104 callsubr
          endchar
        </CharString>
        <CharString name="Agrave">
          -74 callgsubr
          50 104 hstem
          -48 491 vstem
          371 709 rmoveto
          -75 104 rlineto
          -47 hlineto
          87 -104 rlineto
          -194 -445 -77 callgsubr
        </CharString>
        <CharString name="Amacron">
          -74 callgsubr
          75 34 hstem
          -48 504 vstem
          142 264 -104 callsubr
          -123 109 rmoveto
          -7 -34 rlineto
          217 hlineto
          7 34 rlineto
          endchar
        </CharString>
        <CharString name="Aogonek">
          -23 -204 33 192 -21 229 35 352 43 hstem
          310 40 vstem
          142 264 rmoveto
          68 127 41 76 38 69 39 80 rlinecurve
          4 hlineto
          7 -78 9 -74 7 -73 15 -127 rcurveline
          -8 395 rmoveto
          7 callgsubr
          26 -229 rlineto
          5 hlineto
          -47 -33 -48 -55 -53 51 callgsubr
          44 38 47 55 39 hvcurveto
          endchar
        </CharString>
        <CharString name="Aring">
          -74 callgsubr
          39 26 116 26 hstem
          266 30 104 30 vstem
          354 840 143 callgsubr
          -17 19 33 36 27 28 31 hvcurveto
          -14 -142 rmoveto
          48 42 41 51 51 -33 25 -41 -48 -42 133 callsubr
          -198 -434 -77 callgsubr
        </CharString>
        <CharString name="Atilde">
          -74 callgsubr
          55 111 callsubr
          -48 525 vstemhm
          449 804 rmoveto
          -34 -12 -17 -24 -24 hhcurveto
          hintmask 11101100
          3 callgsubr
          28 hlineto
          34 11 18 24 24 hhcurveto
          hintmask 11111100
          39 14 -60 46 hhcurveto
          42 35 112 callgsubr
          -335 -540 -104 callsubr
          endchar
        </CharString>
        <CharString name="B">
          60 0 113 callgsubr
          hintmask 11110000
          68 callgsubr
          hintmask 11101000
          4 callgsubr
          hintmask 11110000
          121 callgsubr
          endchar
        </CharString>
        <CharString name="C">
          29 -48 callsubr
          hstem
          58 43 -88 callsubr
          endchar
        </CharString>
        <CharString name="Cacute">
          29 -48 callsubr
          hstem
          58 43 -88 callsubr
          305 461 -16 callsubr
        </CharString>
        <CharString name="Ccaron">
          29 -48 callsubr
          38 30 hstem
          58 43 -88 callsubr
          473 565 71 callgsubr
        </CharString>
        <CharString name="Ccedilla">
          29 -11 36 609 37 hstem
          58 43 162 36 vstem
          207 1 callgsubr
          32 46 72 1 55 28 53 44 rlinecurve
          -23 28 rlineto
          -40 -48 -47 -24 -61 hhcurveto
          -129 -56 99 130 167 106 213 182 59 40 -34 -45 26 hvcurveto
          32 23 rlineto
          50 -31 -49 43 -74 hhcurveto
          -209 -125 -227 -196 -139 65 -106 129 -14 hvcurveto
          endchar
        </CharString>
        <CharString name="Ccircumflex">
          29 -48 callsubr
          111 30 hstem
          58 43 -88 callsubr
          229 460 70 callgsubr
        </CharString>
        <CharString name="Cdotaccent">
          29 -48 callsubr
          hstem
          58 43 270 75 -88 callsubr
          346 475 70 callsubr
        </CharString>
        <CharString name="D">
          66 0 36 587 36 hstem
          508 -76 callgsubr
          endchar
        </CharString>
        <CharString name="Dcaron">
          66 0 36 587 36 50 30 hstem
          508 -76 callgsubr
          294 777 -41 callgsubr
        </CharString>
        <CharString name="Dcroat">
          -42 callsubr
        </CharString>
        <CharString name="E">
          144 callsubr
          39 479 -99 callsubr
          endchar
        </CharString>
        <CharString name="Eacute">
          144 callsubr
          39 479 -99 callsubr
          146 50 80 callgsubr
        </CharString>
        <CharString name="Ebreve">
          -65 callsubr
          50 31 hstem
          263 28 -99 callsubr
          181 50 rmoveto
          72 41 -5 callsubr
          -4 22 -59 70 hhcurveto
          endchar
        </CharString>
        <CharString name="Ecaron">
          -65 callsubr
          -37 191 -104 30 hstemhm
          39 479 hintmask 11100100
          -102 callgsubr
          hintmask 11010100
          314 154 rmoveto
          -39 hlineto
          hintmask 11101100
          -87 -74 rlineto
          -4 hlineto
          hintmask 11010100
          -56 74 rlineto
          -35 hlineto
          hintmask 11101100
          72 -104 rlineto
          37 hlineto
          endchar
        </CharString>
        <CharString name="Ecircumflex">
          -65 callsubr
          123 30 hstem
          39 479 -99 callsubr
          71 49 -75 callgsubr
          endchar
        </CharString>
        <CharString name="Edieresis">
          144 callsubr
          253 67 84 67 -99 callsubr
          113 64 -63 callsubr
        </CharString>
        <CharString name="Edotaccent">
          144 callsubr
          324 76 -99 callsubr
          188 64 rmoveto
          21 21 10 callgsubr
        </CharString>
        <CharString name="Egrave">
          -65 callsubr
          50 104 hstem
          39 479 -99 callsubr
          182 50 91 callsubr
        </CharString>
        <CharString name="Emacron">
          -65 callsubr
          75 34 hstem
          39 479 -99 callsubr
          78 75 -1 callsubr
        </CharString>
        <CharString name="Eogonek">
          -22 -204 33 171 -40 callsubr
          hstem
          235 40 vstem
          39 hmoveto
          289 hlineto
          -43 -29 -50 -58 -54 51 callgsubr
          48 57 76 62 6 hvcurveto
          8 37 rlineto
          -314 hlineto
          60 294 rlineto
          256 -78 callgsubr
          -258 hlineto
          51 254 rlineto
          305 -78 callgsubr
          -348 hlineto
          endchar
        </CharString>
        <CharString name="Eth">
          -42 callsubr
        </CharString>
        <CharString name="Euro">
          -49 -12 36 225 30 80 29 228 36 hstemhm
          85 41 -28 29 hintmask 11110100
          51 384 rmoveto
          -7 -25 rlineto
          54 hlineto
          hintmask 11111000
          -6 -26 -4 -27 -2 -27 -56 -4 rcurveline
          -7 -26 rlineto
          62 hlineto
          -168 -4 71 -93 110 hhcurveto
          71 50 32 41 42 hvcurveto
          -24 27 rlineto
          -35 -36 -43 -29 -55 hhcurveto
          -88 -56 80 145 3 hvcurveto
          227 hlineto
          7 30 rlineto
          -233 hlineto
          2 28 4 26 6 26 rrcurveto
          274 hlineto
          7 29 rlineto
          -274 hlineto
          134 38 85 94 92 hhcurveto
          57 28 -34 -46 23 hvcurveto
          33 20 rlineto
          51 -25 -40 45 -72 hhcurveto
          hintmask 11110100
          -114 -104 -109 -156 -42 hvcurveto
          endchar
        </CharString>
        <CharString name="F">
          -56 21 -21 318 37 267 37 hstem
          39 479 77 callsubr
          64 318 rlineto
          256 -78 callgsubr
          -258 hlineto
          53 267 rlineto
          305 -78 callgsubr
          -348 hlineto
          endchar
        </CharString>
        <CharString name="G">
          120 callgsubr
          vstem
          -101 callgsubr
          endchar
        </CharString>
        <CharString name="Gbreve">
          8 callgsubr
          38 31 hstem
          58 43 208 28 vstem
          -101 callgsubr
          339 461 rmoveto
          72 41 -5 callsubr
          -3 21 -59 70 hhcurveto
          endchar
        </CharString>
        <CharString name="Gcaron">
          8 callgsubr
          38 30 hstem
          58 43 vstem
          -101 callgsubr
          472 565 -41 callgsubr
        </CharString>
        <CharString name="Gcircumflex">
          8 callgsubr
          111 30 hstem
          58 43 vstem
          -101 callgsubr
          229 460 -75 callgsubr
          endchar
        </CharString>
        <CharString name="Gdotaccent">
          120 callgsubr
          269 76 vstem
          -101 callgsubr
          346 475 rmoveto
          21 21 10 callgsubr
        </CharString>
        <CharString name="H">
          94 21 103 callgsubr
          hstem
          39 557 -59 callgsubr
          endchar
        </CharString>
        <CharString name="Hbar">
          122 21 -21 331 37 127 31 -31 164 hstemhm
          51 607 hintmask 11101000
          507 368 rmoveto
          -340 hlineto
          26 127 rlineto
          340 hlineto
          125 31 rmoveto
          -76 107 callsubr
          rlineto
          -340 107 callsubr
          -70 -2 -7 -29 rlineto
          71 hlineto
          -99 -495 rlineto
          43 hlineto
          67 331 rlineto
          339 hlineto
          -66 -331 rlineto
          43 hlineto
          99 495 rlineto
          75 hlineto
          endchar
        </CharString>
        <CharString name="Hcircumflex">
          94 21 103 callgsubr
          143 30 hstem
          39 557 -59 callgsubr
          98 49 23 callsubr
        </CharString>
        <CharString name="I">
          -284 106 callsubr
          39 174 -52 callsubr
          endchar
        </CharString>
        <CharString name="I.a">
          83 callsubr
          -8 348 vstem
          -94 callsubr
          endchar
        </CharString>
        <CharString name="Iacute">
          -284 106 callsubr
          39 280 -52 callsubr
          -11 50 -16 callsubr
        </CharString>
        <CharString name="Iacute.a">
          83 callsubr
          -8 362 vstem
          -94 callsubr
          193 672 80 callgsubr
        </CharString>
        <CharString name="Icircumflex">
          -284 -18 callsubr
          143 30 hstem
          39 266 -52 callsubr
          -86 49 -75 callgsubr
          endchar
        </CharString>
        <CharString name="Icircumflex.a">
          12 callgsubr
          124 30 hstem
          -8 348 vstem
          -94 callsubr
          118 672 -75 callgsubr
          endchar
        </CharString>
        <CharString name="Idieresis">
          -284 106 callsubr
          96 66 85 67 -52 callsubr
          -45 64 13 callsubr
        </CharString>
        <CharString name="Idieresis.a">
          83 callsubr
          130 67 84 67 vstem
          -94 callsubr
          160 686 -63 callsubr
        </CharString>
        <CharString name="Idotaccent">
          -284 106 callsubr
          167 76 -52 callsubr
          31 64 -24 callsubr
        </CharString>
        <CharString name="Idotaccent.a">
          83 callsubr
          201 76 vstem
          -94 callsubr
          235 686 rmoveto
          21 21 10 callgsubr
        </CharString>
        <CharString name="Igrave">
          -284 -18 callsubr
          70 104 hstem
          39 191 -52 callsubr
          25 50 60 callgsubr
        </CharString>
        <CharString name="Igrave.a">
          12 callgsubr
          50 104 hstem
          -8 348 vstem
          -94 callsubr
          229 672 91 callsubr
        </CharString>
        <CharString name="Imacron">
          -284 -18 callsubr
          95 34 hstem
          39 276 -52 callsubr
          -79 75 -1 callsubr
        </CharString>
        <CharString name="Imacron.a">
          12 callgsubr
          75 34 hstem
          -8 357 vstem
          -94 callsubr
          125 697 -1 callsubr
        </CharString>
        <CharString name="Iogonek">
          -284 -204 33 192 -21 659 -20 hstem
          -41 39 vstem
          -2 -130 rmoveto
          44 41 51 43 35 vhcurveto
          131 659 -28 callgsubr
          -131 -659 rlineto
          5 hlineto
          -35 -29 -50 -58 -54 vvcurveto
          -42 29 -21 38 16 29 8 13 17 vhcurveto
          -12 24 rlineto
          -8 -14 -11 -4 -15 hhcurveto
          -22 -16 16 25 hvcurveto
          endchar
        </CharString>
        <CharString name="Iogonek.a">
          -212 -204 33 171 37 585 37 hstem
          -2 40 vstem
          -8 hmoveto
          92 hlineto
          -36 -29 -50 -58 -54 vvcurveto
          -42 29 -21 39 16 28 8 13 17 vhcurveto
          -12 24 134 callgsubr
          -21 -16 16 25 44 40 51 43 35 hvcurveto
          86 -78 callgsubr
          -88 hlineto
          118 585 rlineto
          87 -78 callgsubr
          -216 hlineto
          -8 -37 rlineto
          86 hlineto
          -118 -585 rlineto
          -84 hlineto
          endchar
        </CharString>
        <CharString name="Itilde">
          -284 -18 callsubr
          75 111 callsubr
          39 297 hintmask 11011000
          39 hmoveto
          43 hlineto
          131 659 -28 callgsubr
          -72 57 -37 callsubr
        </CharString>
        <CharString name="Itilde.a">
          12 callgsubr
          55 111 callsubr
          -8 378 hintmask 11011000
          -94 callsubr
          132 679 rmoveto
          104 callsubr
          hintmask 11111000
          -22 callsubr
          hintmask 11011000
          3 callgsubr
          endchar
        </CharString>
        <CharString name="J">
          -75 18 callgsubr
          hstem
          1 430 8 callsubr
          endchar
        </CharString>
        <CharString name="Jcircumflex">
          -75 18 callgsubr
          143 30 hstem
          1 521 8 callsubr
          -33 536 23 callsubr
        </CharString>
        <CharString name="K">
          21 106 callsubr
          39 534 -38 callgsubr
          endchar
        </CharString>
        <CharString name="L">
          133 callgsubr
          39 344 vstem
          -62 callgsubr
          endchar
        </CharString>
        <CharString name="Lacute">
          133 callgsubr
          39 344 vstem
          -62 callgsubr
          -9 50 -16 callsubr
        </CharString>
        <CharString name="Lcaron">
          133 callgsubr
          39 394 vstem
          -62 callgsubr
          214 -144 22 callgsubr
        </CharString>
        <CharString name="Ldot">
          85 callsubr
          hstemhm
          39 354 -81 81 hintmask 11100000
          -62 callgsubr
          hintmask 11010000
          176 -373 rmoveto
          26 21 25 25 21 -11 17 -21 -26 -23 -28 -25 -19 13 -16 21 hvcurveto
          endchar
        </CharString>
        <CharString name="Lslash">
          133 callgsubr
          -3 386 vstem
          90 37 rmoveto
          47 238 208 100 8 42 -208 -99 68 341 -28 callgsubr
          -72 -363 -93 -44 -8 -42 92 43 -50 -253 rlineto
          336 -78 callgsubr
          endchar
        </CharString>
        <CharString name="M">
          145 callgsubr
          39 636 -29 callgsubr
          endchar
        </CharString>
        <CharString name="N">
          137 callgsubr
          39 558 vstem
          -96 callgsubr
          endchar
        </CharString>
        <CharString name="Nacute">
          137 callgsubr
          39 558 vstem
          -96 callgsubr
          182 50 -16 callsubr
        </CharString>
        <CharString name="Ncaron">
          105 callsubr
          50 30 hstem
          39 558 vstem
          -96 callgsubr
          350 154 rmoveto
          16 callgsubr
          38 hlineto
          endchar
        </CharString>
        <CharString name="Ntilde">
          105 callsubr
          55 111 callsubr
          39 558 hintmask 11011000
          -96 callgsubr
          121 57 -37 callsubr
        </CharString>
        <CharString name="O">
          107 -48 callsubr
          -100 callgsubr
          endchar
        </CharString>
        <CharString name="OE">
          295 -54 callgsubr
          hstem
          61 44 vstem
          61 256 rmoveto
          -154 91 -102 182 vhcurveto
          377 -78 callgsubr
          -292 hlineto
          60 294 rlineto
          234 -78 callgsubr
          -235 hlineto
          50 254 rlineto
          282 -78 callgsubr
          -420 hlineto
          -229 -124 -175 -228 hvcurveto
          442 367 rmoveto
          -117 -587 rlineto
          -50 hlineto
          -155 -76 90 133 199 112 165 196 hvcurveto
          endchar
        </CharString>
        <CharString name="Oacute">
          107 -48 callsubr
          -100 callgsubr
          -10 75 80 callgsubr
        </CharString>
        <CharString name="Ocircumflex">
          107 -48 callsubr
          111 30 -100 callgsubr
          -85 74 -75 callgsubr
          endchar
        </CharString>
        <CharString name="Odieresis">
          107 -48 callsubr
          hstem
          61 44 193 67 84 67 31 -103 callgsubr
          -43 89 -63 callsubr
        </CharString>
        <CharString name="Ograve">
          107 -48 callsubr
          38 104 -100 callgsubr
          26 75 91 callsubr
        </CharString>
        <CharString name="Ohorn">
          107 -48 callsubr
          43 callsubr
          7 40 hintmask 11110000
          280 25 -72 callsubr
          hintmask 11101000
          -82 callsubr
          hintmask 11110000
          -7 callgsubr
          hintmask 11101000
          -3 callgsubr
        </CharString>
        <CharString name="Ohungarumlaut">
          107 -48 callsubr
          38 106 -100 callgsubr
          -64 75 84 callgsubr
          48 -106 84 callgsubr
          endchar
        </CharString>
        <CharString name="Omacron">
          107 -48 callsubr
          63 34 -100 callgsubr
          -78 100 -1 callsubr
        </CharString>
        <CharString name="Oslash">
          107 -12 37 -6 -21 636 37 43 callsubr
          hintmask 10111000
          527 523 rmoveto
          14 -37 6 -44 -50 vvcurveto
          -155 -98 -212 -169 -65 -46 28 48 -28 vhcurveto
          -15 32 rmoveto
          -14 38 -7 45 51 vvcurveto
          -70 callgsubr
          67 47 -30 -50 28 vhcurveto
          137 104 rmoveto
          -21 22 -87 -94 rlineto
          53 -35 -56 32 -77 hhcurveto
          -195 -118 -226 -183 -63 11 -56 22 -44 hvcurveto
          hintmask 01111000
          -93 -101 rlineto
          hintmask 10111000
          26 -22 85 93 rlineto
          -51 36 55 -30 74 hhcurveto
          196 117 226 183 62 -10 55 -22 44 hvcurveto
          endchar
        </CharString>
        <CharString name="Otilde">
          107 -48 callsubr
          43 32 28 32 43 callsubr
          hintmask 11011100
          -106 callgsubr
          -71 82 rmoveto
          104 callsubr
          hintmask 11111100
          -22 callsubr
          hintmask 11011100
          -11 callsubr
        </CharString>
        <CharString name="P">
          20 21 -21 286 36 301 36 hstem
          496 43 77 callsubr
          56 286 rlineto
          122 hlineto
          169 110 72 148 107 -75 46 -121 hvcurveto
          -173 hlineto
          -24 -337 rmoveto
          59 301 rlineto
          120 hlineto
          112 59 -35 -86 -119 -82 -61 -158 hvcurveto
          endchar
        </CharString>
        <CharString name="Q">
          107 -153 38 103 -6 callsubr
          hstem
          139 callsubr
          vstem
          105 267 rmoveto
          -45 callsubr
          -123 -52 99 143 vhcurveto
          391 -376 rmoveto
          -4 -16 -15 -2 -17 hhcurveto
          -80 -64 33 70 -20 hvcurveto
          192 5 114 223 181 vvcurveto
          95 callgsubr
          -147 60 -107 120 -17 vhcurveto
          -100 25 82 -44 97 hhcurveto
          21 16 2 5 19 hvcurveto
          endchar
        </CharString>
        <CharString name="R">
          20 21 121 callsubr
          150 337 -97 callsubr
        </CharString>
        <CharString name="Racute">
          65 callgsubr
          50 104 hstem
          487 43 vstem
          479 98 callgsubr
          38 hlineto
          -206 -372 -97 callsubr
        </CharString>
        <CharString name="Rcaron">
          65 callgsubr
          50 30 hstem
          487 43 vstem
          374 709 rmoveto
          130 callsubr
          -56 74 rlineto
          -35 hlineto
          72 -104 rlineto
          -187 -372 -97 callsubr
        </CharString>
        <CharString name="S">
          125 callgsubr
          hstem
          127 44 229 44 vstem
          -100 callsubr
          endchar
        </CharString>
        <CharString name="Sacute">
          125 callgsubr
          hstem
          127 44 229 44 vstem
          -100 callsubr
          256 585 -16 callsubr
        </CharString>
        <CharString name="Scaron">
          125 callgsubr
          37 30 hstem
          127 44 229 44 vstem
          -100 callsubr
          424 689 rmoveto
          16 callgsubr
          38 hlineto
          endchar
        </CharString>
        <CharString name="Scircumflex">
          125 callgsubr
          111 30 hstem
          127 44 229 44 vstem
          -100 callsubr
          181 585 -75 callgsubr
          endchar
        </CharString>
        <CharString name="T">
          137 callsubr
          98 455 -50 callsubr
          endchar
        </CharString>
        <CharString name="Tcaron">
          104 callgsubr
          50 30 hstem
          98 455 -50 callsubr
          159 193 -41 callgsubr
        </CharString>
        <CharString name="Thorn">
          32 21 -21 165 36 301 36 -36 158 hstemhm
          471 43 hintmask 11101000
          39 hmoveto
          42 hlineto
          33 165 rlineto
          121 hlineto
          169 110 72 149 106 -74 46 -120 hvcurveto
          -130 hlineto
          hintmask 11011000
          23 122 -28 callgsubr
          -48 -459 rmoveto
          hintmask 11101000
          60 301 rlineto
          119 hlineto
          111 59 -34 -87 -118 -82 -62 -158 hvcurveto
          endchar
        </CharString>
        <CharString name="U">
          -13 callgsubr
          hstem
          81 43 vstem
          -104 callgsubr
          endchar
        </CharString>
        <CharString name="Uacute">
          -13 callgsubr
          hstem
          81 43 vstem
          -104 callgsubr
          182 50 -16 callsubr
        </CharString>
        <CharString name="Ubreve">
          -13 callgsubr
          70 31 hstem
          81 43 173 28 vstem
          -104 callgsubr
          217 50 rmoveto
          72 41 148 callgsubr
          -31 hlineto
          -35 -13 5 callgsubr
          endchar
        </CharString>
        <CharString name="Ucircumflex">
          -13 callgsubr
          143 30 hstem
          81 43 vstem
          -104 callgsubr
          106 49 70 callgsubr
        </CharString>
        <CharString name="Udieresis">
          -13 callgsubr
          hstem
          81 43 162 67 85 67 vstem
          -104 callgsubr
          148 73 callsubr
          152 hmoveto
          -83 callgsubr
          endchar
        </CharString>
        <CharString name="Ugrave">
          -13 callgsubr
          70 104 hstem
          81 43 vstem
          -104 callgsubr
          218 50 60 callgsubr
        </CharString>
        <CharString name="Uhorn">
          97 18 callgsubr
          hstem
          81 43 545 39 vstem
          664 765 -98 callsubr
        </CharString>
        <CharString name="Uhungarumlaut">
          -13 callgsubr
          70 106 hstem
          81 43 vstem
          -104 callgsubr
          128 50 84 callgsubr
          47 -106 rmoveto
          34 hlineto
          100 106 rlineto
          -44 hlineto
          endchar
        </CharString>
        <CharString name="Umacron">
          -13 callgsubr
          95 34 hstem
          81 43 vstem
          -104 callgsubr
          113 75 rmoveto
          217 hlineto
          8 34 rlineto
          -217 hlineto
          endchar
        </CharString>
        <CharString name="Uogonek">
          89 -204 33 160 36 634 -20 hstem
          81 43 43 40 vstem
          594 659 rmoveto
          -43 hlineto
          -83 -417 rlineto
          -157 -31 -77 -60 -83 hhcurveto
          -102 -51 61 106 24 2 26 8 31 hvcurveto
          77 386 -28 callgsubr
          -78 -390 rlineto
          -6 -32 -3 -26 -27 vvcurveto
          -116 60 -68 109 -11 vhcurveto
          -45 -33 -38 -53 -44 vvcurveto
          24 callsubr
          -21 -16 16 25 39 35 57 80 26 hvcurveto
          95 32 62 61 30 151 rrcurveto
          endchar
        </CharString>
        <CharString name="Uring">
          -13 callgsubr
          59 26 116 26 hstem
          81 43 192 29 105 29 vstem
          -104 callgsubr
          222 39 rmoveto
          48 41 41 51 51 -32 25 -41 -48 -42 133 callsubr
          14 142 143 callgsubr
          -18 19 33 36 27 28 32 hvcurveto
          endchar
        </CharString>
        <CharString name="Utilde">
          -13 callgsubr
          75 111 callsubr
          81 43 hintmask 11101000
          -104 callgsubr
          hintmask 11111000
          121 57 rmoveto
          34 11 18 24 24 hhcurveto
          hintmask 11101000
          39 14 -60 46 hhcurveto
          42 34 101 callgsubr
          -11 -17 -24 -24 hhcurveto
          hintmask 11111000
          -39 -15 60 -45 32 callsubr
          endchar
        </CharString>
        <CharString name="V">
          -48 0 48 611 -20 hstem
          83 458 vstem
          145 hmoveto
          50 hlineto
          346 659 rlineto
          -44 hlineto
          -203 -390 -37 -70 -38 -79 -36 -72 141 callsubr
          74 -8 75 -7 72 -34 390 rcurveline
          -42 hlineto
          endchar
        </CharString>
        <CharString name="W">
          75 callgsubr
          hstem
          31 callgsubr
          291 37.5 vstem
          -95 callsubr
          endchar
        </CharString>
        <CharString name="Wacute">
          75 callgsubr
          hstem
          31 callgsubr
          291 37.5 vstem
          -95 callsubr
          306 50 -16 callsubr
        </CharString>
        <CharString name="Wcircumflex">
          75 callgsubr
          124 30 hstem
          31 callgsubr
          291 37.5 vstem
          -95 callsubr
          230 50 23 callsubr
        </CharString>
        <CharString name="Wdieresis">
          75 callgsubr
          hstemhm
          31 callgsubr
          200 67 24 37.5 23.5 66 hintmask 11101000
          -95 callsubr
          hintmask 11111100
          272 73 callsubr
          151 hmoveto
          7 callsubr
          endchar
        </CharString>
        <CharString name="Wgrave">
          75 callgsubr
          50 104 hstem
          31 callgsubr
          291 37.5 vstem
          -95 callsubr
          342 50 60 callgsubr
        </CharString>
        <CharString name="X">
          -52 106 callsubr
          -36 549 vstem
          -36 hmoveto
          46 hlineto
          150 203 23 33 27 39 28 34 rlinecurve
          2 hlineto
          12 -34 11 -34 12 -32 73 -209 rcurveline
          45 hlineto
          -123 337 243 322 rlineto
          -46 hlineto
          -143 -195 -22 -30 -24 -32 -23 -30 rlinecurve
          -3 hlineto
          -11 32 -7 25 -11 30 -69 200 rcurveline
          -45 hlineto
          113 -316 rlineto
          endchar
        </CharString>
        <CharString name="Y">
          136 callgsubr
          85 425 vstem
          -96 callsubr
          endchar
        </CharString>
        <CharString name="Yacute">
          136 callgsubr
          85 425 vstem
          -96 callsubr
          64 441 -16 callsubr
        </CharString>
        <CharString name="Ycircumflex">
          123 callgsubr
          144 30 hstem
          85 425 vstem
          -96 callsubr
          -11 441 -75 callgsubr
          endchar
        </CharString>
        <CharString name="Ydieresis">
          136 callgsubr
          195 66 85 67 vstem
          -96 callsubr
          30 455 13 callsubr
        </CharString>
        <CharString name="Ygrave">
          123 callgsubr
          70 104 hstem
          85 425 vstem
          -96 callsubr
          100 441 60 callgsubr
        </CharString>
        <CharString name="Z">
          101 callsubr
          1 530 vstem
          -67 callgsubr
          endchar
        </CharString>
        <CharString name="Zacute">
          101 callsubr
          1 530 vstem
          -67 callgsubr
          299 683 -16 callsubr
        </CharString>
        <CharString name="Zcaron">
          -6 0 37 585 37 -37 191 -104 30 hstemhm
          1 530 hintmask 11001000
          -67 callgsubr
          hintmask 10101000
          467 787 rmoveto
          -40 hlineto
          hintmask 11011000
          -86 -74 rlineto
          -4 hlineto
          hintmask 10101000
          -56 74 rlineto
          -35 hlineto
          hintmask 11011000
          71 -104 rlineto
          38 hlineto
          endchar
        </CharString>
        <CharString name="Zdotaccent">
          101 callsubr
          314 76 vstem
          -67 callgsubr
          341 697 -24 callsubr
        </CharString>
        <CharString name="a">
          -79 callgsubr
          hstemhm
          44 42 hintmask 10101000
          -93 callgsubr
          hintmask 01011000
          -84 callsubr
          hintmask 10101000
          -107 callsubr
          endchar
        </CharString>
        <CharString name="a.a">
          109 callgsubr
          300 41 hintmask 10111100
          -88 callgsubr
          hintmask 01111100
          -105 callsubr
          hintmask 10111100
          -103 callsubr
          endchar
        </CharString>
        <CharString name="a.supa">
          127 callgsubr
          61 34 188 35 vstem
          61 29 callgsubr
          -34 26 -60 -37 -41 0 callgsubr
        </CharString>
        <CharString name="a.sups">
          -39 callsubr
        </CharString>
        <CharString name="aacute">
          -79 callgsubr
          hstemhm
          44 42 hintmask 10101000
          -93 callgsubr
          hintmask 01011000
          -84 callsubr
          hintmask 10101000
          -107 callsubr
          74 546 71 callsubr
        </CharString>
        <CharString name="aacute.a">
          109 callgsubr
          300 41 hintmask 10111100
          -88 callgsubr
          hintmask 01111100
          -105 callsubr
          hintmask 10111100
          -103 callsubr
          -120 307 -60 callsubr
        </CharString>
        <CharString name="abreve">
          -79 callgsubr
          116 30 hstemhm
          44 42 151 28 hintmask 10101110
          -93 callgsubr
          hintmask 01011110
          -84 callsubr
          hintmask 10101110
          -107 callsubr
          132 552 30 callgsubr
        </CharString>
        <CharString name="abreve.a">
          -82 callgsubr
          84 30 hstemhm
          38 41 136 28 136 41 hintmask 10111111
          -88 callgsubr
          hintmask 01111111
          -105 callsubr
          hintmask 10111111
          -103 callsubr
          -63 313 -39 callgsubr
          -31 -62 callsubr
          -5 16 -62 77 hhcurveto
          endchar
        </CharString>
        <CharString name="acircumflex">
          -79 callgsubr
          208 38 hstemhm
          44 42 hintmask 10100100
          -93 callgsubr
          hintmask 01010100
          -84 callsubr
          hintmask 10100100
          -107 callsubr
          hintmask 10101100
          21 546 -55 callsubr
          endchar
        </CharString>
        <CharString name="acircumflex.a">
          -82 callgsubr
          176 38 36 callsubr
          hintmask 10110110
          -88 callgsubr
          hintmask 01110110
          -105 callsubr
          hintmask 10110110
          -103 callsubr
          hintmask 10111110
          -174 307 -55 callgsubr
          endchar
        </CharString>
        <CharString name="acute">
          -3 118 callgsubr
          271 166 vstem
          271 570 -60 callsubr
        </CharString>
        <CharString name="adieresis">
          -79 callgsubr
          138 73 hstemhm
          44 42 142 67 84 67 hintmask 10100100
          -93 callgsubr
          hintmask 01010100
          -84 callsubr
          hintmask 10100100
          -107 callsubr
          hintmask 10101111
          65 574 -32 callsubr
        </CharString>
        <CharString name="adieresis.a">
          109 callgsubr
          127 67 84 67 -45 41 hintmask 10111001
          -88 callgsubr
          hintmask 01111001
          -105 callsubr
          hintmask 10111001
          -103 callsubr
          hintmask 10111110
          -130 335 rmoveto
          -66 callgsubr
          151 hmoveto
          -9 callsubr
          endchar
        </CharString>
        <CharString name="ae">
          254 -12 35 215 33 -8 33 161 35 hstemhm
          38 41 277 34 -18 35 284 38 hintmask 10111101
          38 103 rmoveto
          -76 56 -39 64 72 70 39 66 67 vhcurveto
          -60 21 60 -45 70 hhcurveto
          56 51 24 28 38 hvcurveto
          -18 30 rlineto
          -25 -35 -43 -22 -44 hhcurveto
          hintmask 11011101
          -96 -56 90 125 24 hvcurveto
          321 hlineto
          6 19 7 31 34 vvcurveto
          99 -40 71 -104 vhcurveto
          hintmask 10111011
          -66 -66 -43 -69 -46 hvcurveto
          76 -6 -47 36 -71 hhcurveto
          -55 -61 -23 -27 -46 hvcurveto
          15 -32 rlineto
          27 46 51 19 45 hhcurveto
          68 26 -37 -66 -18 -2 -15 -5 -24 hvcurveto
          hintmask 10111101
          -197 -8 -130 -51 -134 vvcurveto
          hintmask 11011101
          363 168 rmoveto
          109 26 81 77 73 hhcurveto
          82 28 -64 -65 -21 -2 -17 -4 -19 hvcurveto
          hintmask 10111101
          -326 -8 rmoveto
          -9 -51 -2 -34 8 -52 rrcurveto
          -70 -68 -69 -32 -49 hhcurveto
          -52 -39 30 58 99 111 48 169 4 hvcurveto
          endchar
        </CharString>
        <CharString name="agrave">
          -79 callgsubr
          110 136 hstemhm
          44 42 hintmask 10100100
          -93 callgsubr
          hintmask 01010100
          -84 callsubr
          hintmask 10100100
          -107 callsubr
          hintmask 10101100
          149 546 80 callsubr
        </CharString>
        <CharString name="agrave.a">
          -82 callgsubr
          78 136 36 callsubr
          hintmask 10110110
          -88 callgsubr
          hintmask 01110110
          -105 callsubr
          hintmask 10110110
          -103 callsubr
          hintmask 10111110
          -46 307 79 callgsubr
        </CharString>
        <CharString name="amacron">
          -79 callgsubr
          146 34 hstemhm
          44 42 hintmask 10101100
          -93 callgsubr
          hintmask 01011100
          -84 callsubr
          hintmask 10101100
          -107 callsubr
          28 582 rmoveto
          219 hlineto
          5 -51 callsubr
        </CharString>
        <CharString name="amacron.a">
          -82 callgsubr
          114 34 36 callsubr
          hintmask 10111110
          -88 callgsubr
          hintmask 01111110
          -105 callsubr
          hintmask 10111110
          -103 callsubr
          -166 343 72 callsubr
          5 -51 callsubr
        </CharString>
        <CharString name="ampersand">
          42 -12 35 614 34 hstem
          16 42 114 39 173 38 vstem
          58 143 rmoveto
          82 66 54 76 51 vhcurveto
          29 -86 50 -86 56 -63 rrcurveto
          -43 -48 -56 -29 -54 hhcurveto
          -69 -50 48 72 hvcurveto
          153 341 rmoveto
          88 49 65 67 41 16 -32 -33 -82 -77 -51 -83 -52 vhcurveto
          -8 33 -5 33 31 vvcurveto
          296 -140 rmoveto
          -40 -85 -43 -75 -60 -61 -55 62 -48 84 -27 84 rrcurveto
          93 60 95 61 104 vvcurveto
          50 -29 43 -63 -82 -76 -77 -114 -37 6 -39 11 -39 vhcurveto
          -88 -57 -85 -64 -108 vvcurveto
          -91 64 -57 88 70 64 31 50 56 vhcurveto
          40 -39 39 -28 35 -14 19 34 rcurveline
          -33 13 -34 28 -36 35 63 68 53 86 43 92 rrcurveto
          endchar
        </CharString>
        <CharString name="aogonek">
          16 -203 33 158 36 -15 -21 468 36 -12 -20 hstemhm
          44 42 151 39 hintmask 11010110
          44 161 rmoveto
          -112 56 -61 84 66 64 39 51 49 vhcurveto
          2 hlineto
          hintmask 10101110
          -9 -69 rlineto
          -62 -33 -57 -59 -57 vvcurveto
          -42 29 -21 40 65 callsubr
          -12 27 119 callgsubr
          -16 hhcurveto
          -21 -16 15 25 46 43 46 70 38 hvcurveto
          -17 callgsubr
          -34 hlineto
          hintmask 11010110
          -19 -68 rlineto
          -2 hlineto
          47 -25 -44 33 -86 callsubr
          hvcurveto
          149 -137 rmoveto
          -66 -41 48 97 144 104 143 114 45 39 -23 -62 35 hvcurveto
          -50 -243 rlineto
          -66 -57 -70 -38 -53 hhcurveto
          endchar
        </CharString>
        <CharString name="aogonek.a">
          -32 -203 33 158 36 -15 -21 275 33 160 36 hstemhm
          38 41 124 39 137 41 hintmask 10111111
          322 9 rmoveto
          -62 -33 -57 -59 -57 vvcurveto
          54 callsubr
          46 43 46 70 38 hvcurveto
          57 293 rlineto
          4 18 4 27 19 vvcurveto
          99 -51 36 -86 -55 -61 -23 -27 -46 vhcurveto
          16 -32 rlineto
          27 46 50 19 45 hhcurveto
          70 31 -26 -77 -18 -2 -15 -5 -24 hvcurveto
          -204 -6 -130 -53 -134 vvcurveto
          hintmask 11011111
          -76 56 -39 63 57 64 32 41 47 vhcurveto
          2 hlineto
          hintmask 10111111
          -5 -52 rlineto
          44 254 rmoveto
          hintmask 11011111
          -32 -159 rlineto
          -54 -61 -54 -26 -49 hhcurveto
          -52 -39 26 62 hvcurveto
          hintmask 10111111
          99 111 48 176 4 vhcurveto
          endchar
        </CharString>
        <CharString name="approxequal">
          -49 167 34 56 34 78 34 56 34 hstem
          49 382 vstem
          76 396 -22 callgsubr
          27 -218 -22 callgsubr
          endchar
        </CharString>
        <CharString name="aring">
          -79 callgsubr
          76 25 123 25 hstemhm
          44 42 166 30 104 29 hintmask 1010111110000000
          -93 callgsubr
          hintmask 0101111110000000
          -84 callsubr
          hintmask 1010111110000000
          -107 callsubr
          133 512 rmoveto
          48 41 44 52 51 -31 26 -42 -49 -41 -44 -52 -51 32 4 callsubr
        </CharString>
        <CharString name="aring.a">
          -82 callgsubr
          44 25 123 25 hstemhm
          38 41 152 29 104 29 -14 41 hintmask 1011111110000000
          38 103 rmoveto
          -76 56 -39 63 vhcurveto
          hintmask 1011111101000000
          57 64 32 41 47 hvcurveto
          2 hlineto
          hintmask 0111111101000000
          -105 callsubr
          hintmask 1011111110000000
          -103 callsubr
          -62 273 rmoveto
          48 41 44 52 51 -31 26 -42 -48 -41 -44 -52 -51 31 4 callsubr
        </CharString>
        <CharString name="arrowdown">
          83 -26 552 hstem
          279 36 vstem
          300 -26 rmoveto
          262 259 -24 23 -223 -221 rlineto
          491 -36 -491 vlineto
          -223 221 -25 -23 263 -259 rlineto
          endchar
        </CharString>
        <CharString name="arrowup">
          83 -26 552 hstem
          279 36 vstem
          294 526 rmoveto
          -263 -259 25 -23 223 222 rlineto
          -492 36 492 vlineto
          223 -222 24 23 -262 259 rlineto
          endchar
        </CharString>
        <CharString name="asciicircum">
          -47 288 382 -47 47 hstemhm
          90 323 hintmask 10100000
          90 288 rmoveto
          38 hlineto
          76 203 rlineto
          hintmask 01100000
          47 132 rlineto
          2 hlineto
          48 -132 76 -203 rlineto
          36 hlineto
          -145 382 rlineto
          -34 hlineto
          endchar
        </CharString>
        <CharString name="asciitilde">
          -49 269 34 56 34 hstem
          49 382 vstem
          76 296 -22 callgsubr
          endchar
        </CharString>
        <CharString name="asterisk">
          -129 461 251 hstem
          139 247 vstem
          177 473 rmoveto
          76 73 48 -85 25 15 -38 92 98 28 -5 27 -96 -14 8 101 -28 2 -22 -100 -93 32 -11 -25 83 -45 -65 -83 rlineto
          endchar
        </CharString>
        <CharString name="at">
          272 -145 33 164 33 -25 34 295 33 176 33 hstemhm
          46 36 158 37 190 31 212 36 hintmask 1101111110000000
          560 85 rmoveto
          -58 -14 50 66 16 hvcurveto
          48 213 rlineto
          -31 hlineto
          -13 -43 rlineto
          -2 hlineto
          32 -17 -26 19 -32 hhcurveto
          -106 -85 -118 -114 hvcurveto
          hintmask 1011111110000000
          -86 54 -44 56 45 37 30 38 33 vhcurveto
          2 hlineto
          hintmask 1101111110000000
          -45 9 29 -31 48 hhcurveto
          97 96 105 185 170 -101 119 -178 -214 -207 -199 -268 -192 122 -117 168 54 56 12 30 53 hvcurveto
          -15 28 rlineto
          -25 -43 -46 -12 -56 hhcurveto
          -149 -108 105 178 242 191 185 191 163 83 -107 -156 -158 -79 -92 -71 hvcurveto
          hintmask 1011111110000000
          -283 112 rmoveto
          85 63 107 90 23 23 -12 -41 22 vhcurveto
          -39 -173 rlineto
          -47 -34 -36 -22 -34 hhcurveto
          -43 -35 32 71 hvcurveto
          endchar
        </CharString>
        <CharString name="at.case">
          272 -14 32 136 33 -25 33 271 33 148 32 hstemhm
          105 36 143 37 180 30 187 35 hintmask 1101111110000000
          593 187 rmoveto
          -58 -13 48 66 15 hvcurveto
          45 192 rlineto
          -32 hlineto
          -12 -44 rlineto
          -2 hlineto
          33 -18 -25 17 -32 hhcurveto
          -100 -77 -106 -103 hvcurveto
          hintmask 1011111110000000
          -86 50 -42 50 44 38 28 38 32 vhcurveto
          3 hlineto
          hintmask 1101111110000000
          -45 8 29 -29 47 hhcurveto
          87 81 95 172 152 -93 106 -166 -202 -187 -180 -250 -161 108 -102 155 53 56 11 30 52 hvcurveto
          -12 28 rlineto
          -25 -43 -47 -12 -55 hhcurveto
          -138 -93 90 148 223 170 168 180 147 80 -94 -138 -145 -64 -83 -61 hvcurveto
          hintmask 1011111110000000
          -272 109 rmoveto
          77 55 93 84 23 22 -10 -41 22 vhcurveto
          -34 -152 rlineto
          -47 -34 -36 -21 -34 hhcurveto
          -36 -32 31 70 hvcurveto
          endchar
        </CharString>
        <CharString name="atilde">
          -79 callgsubr
          119 147 callgsubr
          44 42 hintmask 10100110
          -93 callgsubr
          hintmask 01010110
          -84 callsubr
          hintmask 10100110
          -107 callsubr
          39 557 135 callgsubr
          hintmask 10101110
          44 -49 callgsubr
          hintmask 10100110
          -44 -5 64 callsubr
          endchar
        </CharString>
        <CharString name="atilde.a">
          -82 callgsubr
          87 32 27 31 36 callsubr
          hintmask 10110111
          -88 callgsubr
          hintmask 01110111
          -105 callsubr
          hintmask 10110111
          -103 callsubr
          -155 318 32 callgsubr
          hintmask 10111111
          43 -49 callgsubr
          hintmask 10110111
          -43 -6 58 -56 17 callgsubr
        </CharString>
        <CharString name="b">
          15 -12 112 callsubr
          hintmask 01111000
          75 hmoveto
          hintmask 10111000
          13 callgsubr
          hintmask 01111000
          95 callsubr
          hintmask 10111000
          63 callsubr
          25 62 -35 vhcurveto
          52 256 rlineto
          hintmask 01111000
          124 callsubr
          endchar
        </CharString>
        <CharString name="b.sups">
          -157 261 31 272 31 hstem
          326 35 vstem
          90 269 rmoveto
          13 41 -27 callgsubr
          -35 17 29 -14 32 129 callsubr
          -36 -20 -28 -33 hvcurveto
          -2 hlineto
          14 66 26 129 rlineto
          -35 hlineto
          -94 -473 rlineto
          198 295 rmoveto
          37 28 -28 -63 -92 -70 -89 -70 -26 -25 90 callsubr
        </CharString>
        <CharString name="backslash">
          -164 -160 870 hstem
          89 172 vstem
          229 -160 rmoveto
          32 hlineto
          -140 870 rlineto
          -32 hlineto
          endchar
        </CharString>
        <CharString name="bar">
          130 callgsubr
          -250 rmoveto
          33 1000 -33 hlineto
          endchar
        </CharString>
        <CharString name="braceleft">
          -243 -152 28 804 28 hstemhm
          48 34 23 32 hintmask 11100000
          48 -76 rmoveto
          -55 26 -21 57 vhcurveto
          34 hlineto
          7 28 rlineto
          -28 hlineto
          -48 -14 19 37 hvcurveto
          hintmask 11110000
          66 55 148 72 vvcurveto
          22 -7 22 -29 12 vhcurveto
          4 vlineto
          43 12 19 35 13 59 12 63 8 68 11 59 rrcurveto
          70 14 21 36 60 hhcurveto
          30 hlineto
          5 28 rlineto
          -35 hlineto
          -75 -32 -29 -101 -20 hvcurveto
          -14 -68 -9 -71 -12 -64 -8 -40 -20 -41 -70 -1 -7 -30 rcurveline
          59 -1 11 -28 -26 vvcurveto
          hintmask 11100000
          -64 -57 -149 -71 vvcurveto
          endchar
        </CharString>
        <CharString name="braceright">
          117 callgsubr
          hstemhm
          139 33 22 35 hintmask 11010000
          229 632 rmoveto
          53 -26 23 -58 vhcurveto
          -34 hlineto
          -7 -28 rlineto
          29 hlineto
          48 13 -19 -39 hvcurveto
          hintmask 11110000
          -66 -55 -148 -70 vvcurveto
          -22 6 -22 31 -12 vhcurveto
          -4 vlineto
          -43 -12 -20 -35 -12 -61 -12 -63 -8 -68 -12 -59 rrcurveto
          -70 -13 -21 -34 -60 hhcurveto
          -30 hlineto
          -6 -28 rlineto
          36 hlineto
          72 35 27 101 20 hvcurveto
          14 68 8 73 12 64 8 40 21 41 69 1 8 30 rcurveline
          -60 1 -10 28 24 vvcurveto
          hintmask 11010000
          64 57 151 71 vvcurveto
          endchar
        </CharString>
        <CharString name="bracketleft">
          117 callgsubr
          hstem
          15 323 vstem
          54 -124 rmoveto
          160 804 rlineto
          121 hlineto
          3 28 rlineto
          -151 hlineto
          -172 -860 rlineto
          151 hlineto
          7 28 rlineto
          endchar
        </CharString>
        <CharString name="bracketright">
          117 callgsubr
          hstem
          -60 325 vstem
          -54 -124 rmoveto
          -6 -28 rlineto
          153 hlineto
          172 860 132 callsubr
          121 hlineto
          -163 -804 rlineto
          endchar
        </CharString>
        <CharString name="breve">
          -3 576 30 hstem
          240 28 vstem
          328 576 -39 callgsubr
          -30 hlineto
          -49 -18 2 callgsubr
        </CharString>
        <CharString name="brokenbar">
          130 callgsubr
          278 rmoveto
          33 472 -33 hlineto
          -532 vmoveto
          -468 33 468 vlineto
          endchar
        </CharString>
        <CharString name="bullet">
          -237 156 217 hstem
          42 196 vstem
          129 156 rmoveto
          67 42 60 62 56 -38 39 -48 -69 -41 -62 -60 -56 37 -39 50 hvcurveto
          endchar
        </CharString>
        <CharString name="c">
          -81 -12 36 432 36 hstem
          42 42 -87 callgsubr
          endchar
        </CharString>
        <CharString name="c.sups">
          -222 261 30 273 31 hstem
          63 34 vstem
          63 388 rmoveto
          -79 49 -48 70 41 33 16 16 21 vhcurveto
          -14 25 rlineto
          -13 -21 -26 -14 -29 hhcurveto
          -50 -40 35 67 74 58 97 78 29 19 -9 -22 19 hvcurveto
          22 23 rlineto
          24 -21 -27 15 -37 hhcurveto
          -103 -71 -109 -98 hvcurveto
          endchar
        </CharString>
        <CharString name="cacute">
          -81 -12 36 432 36 hstem
          42 42 -87 callgsubr
          214 392 -60 callsubr
        </CharString>
        <CharString name="caron">
          -3 570 39 hstem
          246 218 vstem
          464 706 -60 callgsubr
        </CharString>
        <CharString name="ccaron">
          -81 -12 36 432 36 78 39 hstem
          42 42 -87 callgsubr
          407 528 -30 callsubr
        </CharString>
        <CharString name="ccedilla">
          -81 -10 34 432 36 hstem
          42 42 108 35 vstem
          135 -74 rmoveto
          -4 callgsubr
          30 -21 17 -25 8 vhcurveto
          33 46 66 1 47 29 35 26 rlinecurve
          -21 30 rlineto
          -27 -34 -42 -23 -48 hhcurveto
          -89 -44 56 104 147 106 125 108 44 25 -15 -35 29 hvcurveto
          26 28 rlineto
          35 -31 -35 23 -55 hhcurveto
          -129 -130 -128 -186 -108 54 -67 85 -13 hvcurveto
          endchar
        </CharString>
        <CharString name="ccircumflex">
          -81 -12 36 432 36 176 38 hstem
          42 42 -87 callgsubr
          160 392 -55 callgsubr
          endchar
        </CharString>
        <CharString name="cdotaccent">
          -81 -12 36 432 36 hstem
          42 42 202 75 -87 callgsubr
          277 418 -91 callgsubr
        </CharString>
        <CharString name="cedilla">
          -3 -209 211 hstem
          202 35 vstem
          145 -74 rmoveto
          -4 callgsubr
          30 -21 17 -25 8 vhcurveto
          43 60 rlineto
          -35 hlineto
          endchar
        </CharString>
        <CharString name="cent">
          -49 10 -21 110 36 389 36 hstem
          81 42 vstem
          227 137 rmoveto
          -69 11 -35 59 89 vvcurveto
          130 95 89 86 9 vhcurveto
          62 143 rmoveto
          -34 hlineto
          -21 -106 rlineto
          -110 -7 -120 -102 -164 vvcurveto
          -111 53 -65 86 -11 vhcurveto
          -22 -112 rlineto
          34 hlineto
          22 110 68 2 43 28 39 24 rlinecurve
          -17 32 -33 -25 -43 -23 -50 -2 rlinecurve
          77 389 40 -4 23 -19 26 -32 rlinecurve
          28 27 -25 31 -35 27 -50 6 rlinecurve
          endchar
        </CharString>
        <CharString name="circumflex">
          -3 668 38 hstem
          218 218 vstem
          218 570 rmoveto
          36 2 callsubr
          -28 hlineto
          endchar
        </CharString>
        <CharString name="colon">
          -298 -12 478 -88 88 hstemhm
          22 80 -11 80 hintmask 01010000
          124 378 rmoveto
          26 21 26 25 21 -11 16 -21 -26 -22 -27 -25 -20 12 -16 21 hvcurveto
          hintmask 10100000
          -69 -390 69 callgsubr
        </CharString>
        <CharString name="colonmonetary">
          -49 -12 36 -12 -21 625 36 -13 -20 hstemhm
          65 40 hintmask 10011000
          218 27 rmoveto
          -22 5 -19 10 -16 16 rrcurveto
          hintmask 10101000
          174 558 rlineto
          3 4 0 3 hhcurveto
          21 17 -4 -9 15 hvcurveto
          -258 -520 rmoveto
          -23 36 -12 50 61 vvcurveto
          202 92 149 108 30 vhcurveto
          167 139 rmoveto
          -28 hlineto
          hintmask 10011000
          -35 -111 rlineto
          hintmask 01101000
          8 -17 -20 5 -24 -1 0 0 -1 hhcurveto
          31 98 rlineto
          -28 hlineto
          -31 -100 rlineto
          -136 -23 -117 -167 -236 vvcurveto
          -81 22 -66 39 -41 vhcurveto
          -46 -146 rlineto
          29 hlineto
          39 126 17 -12 20 -8 22 -5 rlinecurve
          hintmask 10011000
          -32 -101 rlineto
          29 hlineto
          31 98 rlineto
          2 2 0 2 hhcurveto
          72 51 32 41 41 hvcurveto
          -23 27 rlineto
          -35 -36 -44 -29 -55 hhcurveto
          0 -1 0 0 vhcurveto
          175 562 14 -13 12 -18 10 -21 rlinecurve
          32 20 -13 27 -18 26 -25 18 rlinecurve
          endchar
        </CharString>
        <CharString name="comma">
          -298 -151 227 -83 83 hstemhm
          67 44 hintmask 10100000
          20 callsubr
          endchar
        </CharString>
        <CharString name="comma.dnom">
          -359 -107 174 -69 69 hstemhm
          34 37 hintmask 10100000
          -24 -107 -53 callsubr
        </CharString>
        <CharString name="comma.numr">
          -359 163 174 -69 69 hstemhm
          84 37 hintmask 10100000
          26 163 -53 callsubr
        </CharString>
        <CharString name="comma.subs">
          -359 -277 174 -69 69 hstemhm
          3 37 hintmask 10100000
          -55 -277 -53 callsubr
        </CharString>
        <CharString name="comma.sups">
          -359 333 174 -69 69 hstemhm
          123 37 hintmask 10100000
          65 333 -53 callsubr
        </CharString>
        <CharString name="copyright">
          150 -12 29 107 33 321 33 113 28 hstem
          39 30 114 36 405 30 vstem
          183 273 rmoveto
          -99 58 -50 82 57 37 23 29 40 vhcurveto
          -17 27 rlineto
          -24 -35 -34 -22 -44 hhcurveto
          -65 -43 41 82 115 88 83 73 35 19 -15 -25 20 hvcurveto
          25 22 rlineto
          30 -22 -26 21 -47 hhcurveto
          -92 -109 -90 -148 hvcurveto
          115 -285 -17 callsubr
        </CharString>
        <CharString name="currency">
          -49 144 35 306 34 hstem
          74 39 260 40 vstem
          386 124 rmoveto
          26 21 -55 73 rlineto
          34 39 22 54 58 vvcurveto
          30 -5 27 -10 21 vhcurveto
          76 67 -21 26 -74 -65 rlineto
          28 -24 -34 16 -42 hhcurveto
          -43 -41 -17 -27 -34 hvcurveto
          -47 63 -27 -22 48 -64 rlineto
          -38 -41 -23 -56 -61 vvcurveto
          -30 5 -25 8 -21 vhcurveto
          -74 -65 21 -26 72 63 rlineto
          -30 23 35 -16 44 hhcurveto
          45 44 19 31 35 hvcurveto
          -57 291 rmoveto
          64 34 -43 -79 -104 -82 -80 -80 -63 -35 43 79 104 83 80 79 hvcurveto
          endchar
        </CharString>
        <CharString name="d">
          17 -12 63 callgsubr
          hintmask 10111000
          -50 callgsubr
          hintmask 01111000
          12 callsubr
          hintmask 10111000
          -45 callgsubr
          endchar
        </CharString>
        <CharString name="d.sups">
          -156 52 callgsubr
          321 546 rmoveto
          -4 hlineto
          34 -17 -29 15 -32 hhcurveto
          -90 -86 -97 -120 -77 38 -40 56 44 40 23 36 34 hvcurveto
          4 hlineto
          -9 -51 rlineto
          28 hlineto
          92 467 rlineto
          -34 hlineto
          -25 -126 rlineto
          -168 -318 -30 callgsubr
        </CharString>
        <CharString name="dagger">
          -107 523.5 37 hstem
          112 295 vstem
          115 -80 rmoveto
          40 hlineto
          119 605 125 -3 61 callgsubr
          3 rlineto
          endchar
        </CharString>
        <CharString name="daggerdbl">
          -107 71 36.5 416.5 36.5 hstem
          22 385 vstem
          22 70 rmoveto
          126 2 -31 -152 rlineto
          40 hlineto
          27 152 126 -2 8 39 -128 -3 45 210 39 210 125 -4 61 callgsubr
          4 -45 -210 -39 -210 -126 3 rlineto
          endchar
        </CharString>
        <CharString name="dcaron">
          15 -64 callsubr
          56 171 0 -20 hstemhm
          44 42 hintmask 10101100
          -50 callgsubr
          hintmask 01101100
          12 callsubr
          hintmask 10110100
          -45 callgsubr
          386 524 22 callgsubr
        </CharString>
        <CharString name="dcroat">
          14 46 callgsubr
          436 36 109 31 -31 138 hstemhm
          44 42 hintmask 10110100
          373 128 rmoveto
          -66 -57 -61 -38 -62 hhcurveto
          -66 -41 48 97 126 103 141 113 45 39 -25 -62 33 hvcurveto
          167 263 rmoveto
          -74 hlineto
          hintmask 10101100
          22 107 -25 callsubr
          hintmask 10110100
          -21 -107 rlineto
          -163 hlineto
          -7 -31 rlineto
          163 hlineto
          -18 -91 -19 -95 rlineto
          -4 hlineto
          46 -23 -42 31 -56 hhcurveto
          -133 -126 -146 -165 -81 callsubr
          hvcurveto
          4 hlineto
          hintmask 01110100
          140 callgsubr
          117 581 73 4 rlineto
          endchar
        </CharString>
        <CharString name="degree">
          -219 450 29 176 29 hstem
          105 31 151 32 vstem
          201 450 rmoveto
          66 52 61 72 60 -41 41 -55 -66 -52 -61 -72 -60 41 -41 55 hvcurveto
          20 205 rmoveto
          41 25 -33 -43 -49 -33 -51 -51 -41 -26 33 43 49 34 51 51 hvcurveto
          endchar
        </CharString>
        <CharString name="dieresis">
          -3 598 73 hstem
          231 67 85 67 vstem
          261 598 rmoveto
          -9 callsubr
          152 hmoveto
          -66 callgsubr
          endchar
        </CharString>
        <CharString name="divide">
          -49 109 76 129 34 125 76 hstem
          209 72 vstem
          245 473 rmoveto
          86 callsubr
          -364 vmoveto
          86 callsubr
          197 205 122 callsubr
          endchar
        </CharString>
        <CharString name="dollar">
          -49 -110 134 -34 34 592 134 hstemhm
          125 41 178 41 hintmask 01111000
          350 750 rmoveto
          -36 hlineto
          -21 -98 rlineto
          -97 -2 -71 -68 -94 -153 219 -5 -165 vvcurveto
          -83 -63 -58 -84 -65 -51 41 42 -30 vhcurveto
          -28 -28 30 -38 52 -40 61 -11 rlinecurve
          hintmask 10111000
          -20 -100 rlineto
          36 hlineto
          19 98 rlineto
          110 2 74 82 101 179 -219 5 138 vvcurveto
          72 56 49 74 50 42 -33 -41 27 vhcurveto
          30 25 -25 38 -43 33 -48 11 rlinecurve
          endchar
        </CharString>
        <CharString name="dong">
          -49 0 31 76 34 300 32 91 31 hstem
          77 39 vstem
          35 hmoveto
          322 126 callgsubr
          -322 hlineto
          289 174 rmoveto
          -42 -49 -41 -22 -44 hhcurveto
          -55 -26 41 62 109 87 88 80 33 30 -19 -39 20 hvcurveto
          160 212 rmoveto
          -78 hlineto
          16 81 rlineto
          -38 hlineto
          -17 -81 rlineto
          -131 hlineto
          -7 -31 rlineto
          131 hlineto
          -10 -50 -17 -95 rlineto
          30 -20 -24 24 -47 hhcurveto
          -102 -105 -100 -137 -75 42 -54 71 47 49 27 32 37 hvcurveto
          2 hlineto
          -7 -49 rlineto
          33 hlineto
          90 447 78 4 rlineto
          endchar
        </CharString>
        <CharString name="dotaccent">
          -3 596 78 hstem
          301 76 vstem
          335 596 -85 callgsubr
        </CharString>
        <CharString name="dotlessi">
          11 callsubr
          hstem
          40 138 -44 callgsubr
          endchar
        </CharString>
        <CharString name="e">
          -64 callgsubr
          hstem
          42 41 315 38 vstem
          -107 callgsubr
          endchar
        </CharString>
        <CharString name="e.sups">
          -193 261 30 132 28 114 30 hstem
          63 37 200 32 vstem
          63 394 rmoveto
          -86 47 -47 75 41 35 17 15 26 vhcurveto
          -14 27 rlineto
          -14 -22 -27 -15 -34 hhcurveto
          -69 -33 52 80 12 hvcurveto
          221 hlineto
          6 15 5 20 23 vvcurveto
          56 -23 58 -78 -83 -85 -82 -119 vhcurveto
          43 57 rmoveto
          67 16 57 47 49 hhcurveto
          51 21 -40 -42 -9 0 -10 -4 -13 hvcurveto
          endchar
        </CharString>
        <CharString name="eacute">
          -64 callgsubr
          hstem
          42 41 315 38 vstem
          -107 callgsubr
          -143 299 -60 callsubr
        </CharString>
        <CharString name="eacute.sups">
          67 callsubr
          199 645 rmoveto
          32 hlineto
          87 91 -25 callsubr
          -213 -20 callsubr
        </CharString>
        <CharString name="ebreve">
          -64 callgsubr
          84 30 hstem
          42 41 135 28 152 38 vstem
          -107 callgsubr
          -86 305 -39 callgsubr
          -31 -62 callsubr
          -5 16 -62 77 hhcurveto
          endchar
        </CharString>
        <CharString name="ecaron">
          -64 callgsubr
          78 39 hstem
          42 41 315 38 vstem
          -107 callgsubr
          50 435 -30 callsubr
        </CharString>
        <CharString name="ecircumflex">
          -64 callgsubr
          176 38 hstem
          42 41 315 38 vstem
          -107 callgsubr
          -197 299 -55 callgsubr
          endchar
        </CharString>
        <CharString name="edieresis">
          -64 callgsubr
          hstemhm
          42 41 126 67 84 67 -29 38 hintmask 11111010
          -107 callgsubr
          -153 327 rmoveto
          -66 callgsubr
          hintmask 11111100
          151 hmoveto
          -9 callsubr
          endchar
        </CharString>
        <CharString name="edotaccent">
          -64 callgsubr
          hstem
          42 41 196 75 44 38 vstem
          -107 callgsubr
          -80 325 -91 callgsubr
        </CharString>
        <CharString name="egrave">
          -64 callgsubr
          78 136 hstem
          42 41 315 38 vstem
          -107 callgsubr
          -69 299 79 callgsubr
        </CharString>
        <CharString name="egrave.sups">
          67 callsubr
          244 645 rmoveto
          28 hlineto
          -40 91 rlineto
          -37 hlineto
          -131 -20 callsubr
        </CharString>
        <CharString name="eight">
          -97 callgsubr
        </CharString>
        <CharString name="eight.dnom">
          -163 -12 29 355 30 hstemhm
          17 51 callsubr
          53 97 -92 callgsubr
        </CharString>
        <CharString name="eight.numr">
          -163 258 29 355 30 hstemhm
          67 51 callsubr
          103 367 -92 callgsubr
        </CharString>
        <CharString name="eight.onum">
          -97 callgsubr
        </CharString>
        <CharString name="eight.pnum">
          -97 callgsubr
        </CharString>
        <CharString name="eight.subs">
          -163 -182 29 355 30 hstemhm
          -14 51 callsubr
          22 -73 -92 callgsubr
        </CharString>
        <CharString name="eight.sups">
          -163 428 29 355 30 hstemhm
          106 51 callsubr
          142 537 -92 callgsubr
        </CharString>
        <CharString name="eight.tnum">
          -97 callgsubr
        </CharString>
        <CharString name="ellipsis">
          439 -12 88 hstem
          91 80 254 80 254 80 vstem
          124 -12 126 callsubr
          -27 -26 -19 12 -16 21 hvcurveto
          334 hmoveto
          31 callsubr
          -27 -26 -19 12 -16 21 hvcurveto
          334 hmoveto
          31 callsubr
          -27 -26 60 callsubr
        </CharString>
        <CharString name="emacron">
          -64 callgsubr
          114 34 hstem
          42 41 315 38 vstem
          -107 callgsubr
          -189 335 72 callsubr
          5 -51 callsubr
        </CharString>
        <CharString name="emdash">
          47 callgsubr
        </CharString>
        <CharString name="endash">
          -49 234 34 hstem
          36 390 vstem
          36 234 rmoveto
          381 hlineto
          9 34 rlineto
          -383 hlineto
          endchar
        </CharString>
        <CharString name="eogonek">
          -40 -203 33 158 35 215 33 186 35 hstem
          42 41 101 38 176 38 vstem
          184 -140 rmoveto
          -13 callsubr
          45 40 55 108 70 hvcurveto
          -19 30 rlineto
          -25 -34 -43 -22 -43 hhcurveto
          -95 -74 64 151 26 hvcurveto
          335 hlineto
          6 19 7 31 34 vvcurveto
          99 -40 71 -104 -123 -127 -124 -182 -129 72 -69 111 11 16 2 3 15 vhcurveto
          -35 -28 -48 -51 -54 vvcurveto
          -90 411 rmoveto
          109 26 83 77 85 hhcurveto
          82 28 -64 -65 -21 -2 -17 -4 -19 hvcurveto
          endchar
        </CharString>
        <CharString name="equal">
          108 callsubr
          414 122 callsubr
          394 -202 122 callsubr
          endchar
        </CharString>
        <CharString name="estimated">
          289 -12 20 308 18 306 20 hstem
          66 130 450 128 vstem
          204 108 rmoveto
          -4 6 -4 6 8 vvcurveto
          184 vlineto
          2 2 2 2 vhcurveto
          574 hlineto
          2 0 4 2 vvcurveto
          186 -158 150 -196 -196 -158 -150 -186 -186 158 -150 196 114 102 52 80 66 vhcurveto
          -52 hlineto
          -68 -56 -82 -44 -90 hhcurveto
          -86 -78 38 62 -54 hvcurveto
          -4 226 rmoveto
          -2 -2 2 4 hvcurveto
          180 vlineto
          8 4 8 4 6 vhcurveto
          60 56 76 38 86 hhcurveto
          82 76 -36 -58 56 hvcurveto
          6 -6 4 -8 -8 vvcurveto
          -184 vlineto
          -4 -2 -2 -4 vhcurveto
          endchar
        </CharString>
        <CharString name="eth">
          6 -12 36 382 36 282 -20 hstem
          48 40 326 40 vstem
          218 24 rmoveto
          -83 -47 69 78 118 77 117 117 61 41 -45 -47 30 hvcurveto
          -154 -7 -77 -136 -112 hhcurveto
          299 633 rmoveto
          -10 27 -146 -62 -33 41 -40 33 -45 28 rlinecurve
          -21 -27 40 -26 35 -29 29 -34 rlinecurve
          -141 -60 10 -27 149 63 41 -57 25 -72 3 -92 rlinecurve
          47 -33 -46 32 -53 hhcurveto
          -142 -91 -135 -141 -99 68 -79 96 147 95 160 194 107 -28 84 -47 66 hvcurveto
          endchar
        </CharString>
        <CharString name="exclam">
          -258 -12 88 -67 -21 hstemhm
          42 81 hintmask 01100000
          95 179 rmoveto
          32 hlineto
          87 421 84 callsubr
          -98 -612 rmoveto
          26 21 25 26 hvcurveto
          hintmask 10100000
          21 -11 16 -21 -26 -23 -27 -26 vhcurveto
          hintmask 01100000
          -19 13 -16 21 vhcurveto
          endchar
        </CharString>
        <CharString name="exclamdown">
          -258 404 88 0 -20 hstemhm
          129 80 hintmask 01100000
          157 302 rmoveto
          -32 hlineto
          -88 -422 -14 -72 rlineto
          41 hlineto
          13 72 rlineto
          99 612 rmoveto
          -27 -20 -25 -26 hvcurveto
          hintmask 10100000
          -21 10 -16 21 27 22 28 25 vhcurveto
          hintmask 01100000
          19 -12 16 -21 vhcurveto
          endchar
        </CharString>
        <CharString name="f">
          -255 128 callsubr
          47 325 hintmask 11101000
          -61 callsubr
          hintmask 11011000
          18 31 rlineto
          hintmask 11101000
          5 callsubr
          endchar
        </CharString>
        <CharString name="f.sups">
          -333 556 31 133 30 hstem
          65 225 vstem
          129 587 rmoveto
          -44 -3 -5 -28 rlineto
          43 hlineto
          -58 -287 rlineto
          35 hlineto
          57 287 rlineto
          74 hlineto
          5 31 rlineto
          -73 hlineto
          14 69 rlineto
          38 8 22 26 30 hhcurveto
          17 12 -6 -6 10 hvcurveto
          14 28 rlineto
          10 -19 -15 4 -19 hhcurveto
          -46 -37 -33 -64 -12 hvcurveto
          endchar
        </CharString>
        <CharString name="f_f">
          -3 21 -21 444 36 205 36 -26 36 -30 20 -10 20 hstemhm
          47 577 hintmask 11100010
          396 480 rmoveto
          -212 hlineto
          20 100 rlineto
          58 13 34 47 53 hhcurveto
          31 17 -8 -9 18 hvcurveto
          hintmask 11001010
          18 33 rlineto
          hintmask 11100010
          10 -24 -22 10 -38 hhcurveto
          -67 -52 -46 -95 -22 hvcurveto
          -20 -100 -64 -4 -6 -32 rlineto
          63 hlineto
          -89 -444 rlineto
          41 hlineto
          89 444 rlineto
          212 hlineto
          -90 -444 rlineto
          41 hlineto
          90 444 rlineto
          104 hlineto
          8 36 rlineto
          -105 hlineto
          22 110 rlineto
          hintmask 11010010
          58 12 30 47 49 hhcurveto
          25 16 -8 -9 16 hvcurveto
          hintmask 11000110
          17 33 rlineto
          hintmask 11010010
          10 -21 -20 10 -33 hhcurveto
          -63 -49 -46 -95 -20 hvcurveto
          endchar
        </CharString>
        <CharString name="f_t">
          -2 46 callgsubr
          444 36 215 36 -20 20 hstemhm
          283 41 hintmask 10110100
          393 444 rmoveto
          130 hlineto
          8 36 rlineto
          -130 hlineto
          28 137 rlineto
          -35 hlineto
          -33 -137 rlineto
          -177 hlineto
          22 110 rlineto
          58 12 31 47 48 hhcurveto
          25 17 -8 -9 15 hvcurveto
          hintmask 10101100
          18 33 rlineto
          hintmask 01110100
          10 -22 -20 10 -33 hhcurveto
          -63 -49 -46 -95 -20 hvcurveto
          -22 -110 -64 -4 -6 -32 rlineto
          63 hlineto
          -89 -444 rlineto
          41 hlineto
          89 444 rlineto
          175 hlineto
          -65 -313 rlineto
          hintmask 10110100
          -3 -17 -1 -13 -18 vvcurveto
          -51 26 -44 75 31 27 12 10 19 vhcurveto
          -11 31 rlineto
          -8 -16 -19 -9 -23 hhcurveto
          -52 -16 23 44 14 2 12 2 12 hvcurveto
          endchar
        </CharString>
        <CharString name="fi">
          -35 128 callsubr
          406 75 hintmask 11101000
          -61 callsubr
          hintmask 11011000
          18 31 rlineto
          hintmask 11101000
          5 callsubr
          217 -476 rmoveto
          41 hlineto
          97 480 -25 callsubr
          46 116 -91 callgsubr
        </CharString>
        <CharString name="figuredash">
          -49 234 34 hstem
          36 391 vstem
          36 234 rmoveto
          381 hlineto
          10 34 rlineto
          -384 hlineto
          endchar
        </CharString>
        <CharString name="five">
          -49 -12 36 342 35 202 36 hstem
          364 41 vstem
          -3 93 rmoveto
          -50 30 55 -55 92 hhcurveto
          123 108 96 149 112 -70 56 -96 -40 -32 50 callsubr
          40 29 13 46 hhcurveto
          79 53 -46 -95 -120 -88 -81 -97 -87 -38 49 43 -27 hvcurveto
          endchar
        </CharString>
        <CharString name="five.dnom">
          -165 -12 102 callgsubr
          241 36 vstem
          1 68 -87 callsubr
          endchar
        </CharString>
        <CharString name="five.numr">
          -165 258 102 callgsubr
          291 36 vstem
          51 338 -87 callsubr
          endchar
        </CharString>
        <CharString name="five.onum">
          -37 callgsubr
        </CharString>
        <CharString name="five.pnum">
          -67 -12 36 342 35 202 36 hstem
          359 42 vstem
          -7 93 rmoveto
          -50 29 55 -55 92 hhcurveto
          123 109 96 149 112 -71 56 -96 -39 -33 50 callsubr
          41 28 13 46 hhcurveto
          79 53 -46 -95 -120 -87 -81 -97 -87 -39 49 43 -26 hvcurveto
          endchar
        </CharString>
        <CharString name="five.subs">
          -165 -182 102 callgsubr
          210 36 vstem
          -30 -102 -87 callsubr
          endchar
        </CharString>
        <CharString name="five.sups">
          -165 428 102 callgsubr
          330 36 vstem
          90 508 -87 callsubr
          endchar
        </CharString>
        <CharString name="five.tnum">
          -37 callgsubr
        </CharString>
        <CharString name="fiveeighths">
          259 -12 29 241 31 83 30 92 30 105 31 hstemhm
          290 36 111 83 callgsubr
          hintmask 1111111010000000
          50 338 -87 callsubr
          98 -368 -42 callgsubr
          333 -19 callgsubr
          hintmask 1111111101000000
          -24 callgsubr
          hintmask 1111111010000000
          -5 callgsubr
          hintmask 1111111101000000
          -9 callgsubr
          hintmask 1111111010000000
          -50 -22 -49 -43 -58 vvcurveto
          endchar
        </CharString>
        <CharString name="fl">
          -23 46 callgsubr
          444 36 215 36 -12 -20 32 -20 hstemhm
          304 44 hintmask 01110010
          -61 callsubr
          hintmask 01100110
          18 31 rlineto
          hintmask 10110010
          5 callsubr
          230 -414 rmoveto
          -3 36 callgsubr
          18 -15 26 14 9 2 5 10 vhcurveto
          -3 33 rlineto
          -4 -9 -3 0 -4 hhcurveto
          -10 -4 6 9 4 0 6 2 10 hvcurveto
          hintmask 01101010
          131 660 -25 callsubr
          endchar
        </CharString>
        <CharString name="fl.a">
          -33 444 36 215 36 hstem
          47 434 vstem
          -61 callsubr
          18 31 rlineto
          5 callsubr
          217 -476 rmoveto
          41 hlineto
          144 719 -25 callsubr
          endchar
        </CharString>
        <CharString name="four">
          120 callsubr
          8 413 hintmask 11011000
          287 hmoveto
          38 189 rlineto
          89 hlineto
          7 36 rlineto
          -89 hlineto
          83 414 rlineto
          -38 38 callsubr
          28 33 27 36 rlinecurve
          4 hlineto
          -10 -42 -12 -44 -6 -33 -47 -233 rcurveline
          endchar
        </CharString>
        <CharString name="four.dnom">
          -163 116 29 193 52 hstem
          19 268 vstem
          66 145 -74 callsubr
        </CharString>
        <CharString name="four.numr">
          -163 386 29 193 52 hstem
          69 268 vstem
          116 415 -74 callsubr
        </CharString>
        <CharString name="four.onum">
          -34 callsubr
        </CharString>
        <CharString name="four.pnum">
          120 callsubr
          20 413 hintmask 11011000
          298 hmoveto
          38 189 rlineto
          89 hlineto
          8 36 rlineto
          -90 hlineto
          83 414 rlineto
          -37 38 callsubr
          27 33 28 36 rlinecurve
          4 hlineto
          -10 -42 -12 -44 -7 -33 -47 -233 rcurveline
          endchar
        </CharString>
        <CharString name="four.subs">
          -163 -54 29 193 52 hstem
          -12 268 vstem
          35 -25 -74 callsubr
        </CharString>
        <CharString name="four.sups">
          -163 556 29 193 52 hstem
          108 268 vstem
          155 585 -74 callsubr
        </CharString>
        <CharString name="four.tnum">
          -34 callsubr
        </CharString>
        <CharString name="fraction">
          -433 -12 684 hstem
          -209 526 vstem
          -173 -12 -42 callgsubr
          endchar
        </CharString>
        <CharString name="g">
          -35 callgsubr
          hstemhm
          44 42 hintmask 11011000
          445 480 rmoveto
          hintmask 11101000
          -101 callsubr
          hintmask 11011000
          -49 callsubr
          hintmask 11101000
          -66 callsubr
          hintmask 11011000
          44 callgsubr
          endchar
        </CharString>
        <CharString name="g.a">
          -26 callsubr
          35 callgsubr
          hintmask 1101101010000000
          -26 callgsubr
          hintmask 1110110100000000
          -92 callsubr
          hintmask 1110101010000000
          -72 callgsubr
          hintmask 1101101010000000
          -19 callsubr
          hintmask 1110101100000000
          -79 callsubr
          hintmask 1101101010000000
          -67 callsubr
          endchar
        </CharString>
        <CharString name="g.supa">
          -196 119 28 219 28 163 30 -22 30 hstemhm
          25 33 27 33 -29 33 134 35 -15 31 hintmask 1101101010000000
          89 454 rmoveto
          -30 12 -23 18 -16 vhcurveto
          -4 vlineto
          hintmask 1110110010000000
          -22 -17 -12 -16 -22 vvcurveto
          -18 8 -16 10 -7 vhcurveto
          -4 vlineto
          hintmask 1110101100000000
          -34 -16 -44 -27 -45 vvcurveto
          -60 60 -14 47 80 79 34 68 43 -26 17 -83 12 vhcurveto
          hintmask 1110110010000000
          -53 8 -11 8 26 vvcurveto
          14 12 14 12 9 vhcurveto
          -4 10 10 -2 14 hhcurveto
          76 55 63 77 17 -5 20 -10 14 hvcurveto
          65 hlineto
          6 30 rlineto
          -103 hlineto
          hintmask 1101101010000000
          5 -11 -14 3 -15 hhcurveto
          -75 -56 -63 -78 hvcurveto
          hintmask 1110101100000000
          41 -184 rmoveto
          18 -4 10 -2 13 -1 rrcurveto
          63 -7 22 -11 -31 vvcurveto
          -37 -54 -30 -67 -42 -35 14 38 31 35 26 37 14 vhcurveto
          hintmask 1101101010000000
          88 295 rmoveto
          38 20 -24 -40 -54 -42 -53 -55 -37 -20 25 41 53 42 52 54 hvcurveto
          endchar
        </CharString>
        <CharString name="g.sups">
          -164 117 31 125 31 260 31 hstem
          63 35 vstem
          334 587 rmoveto
          24 callgsubr
          -114 -71 38 -40 56 43 37 19 28 34 hvcurveto
          4 hlineto
          -12 -59 rlineto
          -68 -16 -37 -45 -57 hhcurveto
          -36 -35 18 21 -25 hvcurveto
          -19 -25 rlineto
          -29 33 42 -16 38 hhcurveto
          76 52 57 83 17 hvcurveto
          65 330 rlineto
          -197 -283 rmoveto
          -38 -28 28 57 86 70 89 70 26 25 -13 -42 22 hvcurveto
          -29 -147 rlineto
          -34 -35 -46 -24 -37 hhcurveto
          endchar
        </CharString>
        <CharString name="gbreve">
          -35 callgsubr
          116 30 hstemhm
          44 42 148 28 hintmask 11011110
          445 480 rmoveto
          hintmask 11101110
          -101 callsubr
          hintmask 11011110
          -49 callsubr
          hintmask 11101110
          -66 callsubr
          hintmask 11011110
          44 callgsubr
          hintmask 11101110
          131 541 -39 callgsubr
          -31 -62 callsubr
          -5 16 -62 77 hhcurveto
          endchar
        </CharString>
        <CharString name="gbreve.a">
          -26 callsubr
          84 30 74 callgsubr
          71 29 113 41 -12 38 hintmask 1101110110100000
          -26 callgsubr
          hintmask 1110111011000000
          -92 callsubr
          hintmask 1110110110100000
          -72 callgsubr
          hintmask 1101110110100000
          -19 callsubr
          hintmask 1110110111000000
          -79 callsubr
          hintmask 1101110110100000
          -67 callsubr
          9 118 30 callsubr
        </CharString>
        <CharString name="gcaron">
          -35 callgsubr
          110 39 hstemhm
          44 42 hintmask 11010100
          445 480 rmoveto
          hintmask 11100100
          -101 callsubr
          hintmask 11010100
          -49 callsubr
          hintmask 11100100
          -66 callsubr
          hintmask 11010100
          81 callgsubr
          267 671 -30 callsubr
        </CharString>
        <CharString name="gcaron.a">
          -26 callsubr
          78 39 -80 callgsubr
          144 248 rmoveto
          -36 hlineto
          -92 134 callsubr
          -32 hlineto
          68 -136 rlineto
          28 hlineto
          endchar
        </CharString>
        <CharString name="gcircumflex">
          -35 callgsubr
          208 38 hstemhm
          44 42 hintmask 11010100
          445 480 rmoveto
          hintmask 11100100
          -101 callsubr
          hintmask 11010100
          -49 callsubr
          hintmask 11100100
          -66 callsubr
          hintmask 11010100
          81 callgsubr
          20 535 -55 callgsubr
          endchar
        </CharString>
        <CharString name="gcircumflex.a">
          -26 callsubr
          176 38 -80 callgsubr
          -102 112 -55 callsubr
          endchar
        </CharString>
        <CharString name="gdotaccent">
          -35 callgsubr
          hstemhm
          44 42 209 75 hintmask 11011000
          445 480 rmoveto
          hintmask 11101000
          -101 callsubr
          hintmask 11011000
          -49 callsubr
          hintmask 11101000
          -66 callsubr
          hintmask 11011000
          81 callgsubr
          137 561 -91 callgsubr
        </CharString>
        <CharString name="gdotaccent.a">
          -26 callsubr
          74 callgsubr
          132 76 5 41 -12 38 hintmask 1101101001000000
          -26 callgsubr
          hintmask 1110110010000000
          -92 callsubr
          hintmask 1110101001000000
          -72 callgsubr
          hintmask 1101101001000000
          -19 callsubr
          hintmask 1110101010000000
          -79 callsubr
          hintmask 1101101101000000
          -67 callsubr
          15 138 rmoveto
          21 21 -90 callsubr
        </CharString>
        <CharString name="germandbls">
          13 -12 35 -2 -21 695 36 hstemhm
          273 41 103 41 -26 40 hintmask 01111000
          -44 callsubr
          104 524 rlineto
          94 20 55 77 75 hhcurveto
          58 23 -38 -50 hvcurveto
          -116 -144 -24 -113 vvcurveto
          hintmask 10110100
          -102 159 -13 -112 vvcurveto
          -60 -52 -44 -61 -44 -35 18 28 -35 vhcurveto
          -23 -28 rlineto
          -34 39 50 -19 47 hhcurveto
          90 64 66 80 hvcurveto
          127 -158 10 91 vvcurveto
          hintmask 10111000
          90 144 26 132 vvcurveto
          79 -48 42 -71 -101 -68 -90 -105 -22 vhcurveto
          endchar
        </CharString>
        <CharString name="grave">
          -3 118 callgsubr
          273 105 vstem
          345 570 28 callgsubr
        </CharString>
        <CharString name="greater">
          -49 150 360 hstem
          394 50 vstem
          48 150 rmoveto
          396 162 rlineto
          36 vlineto
          -396 162 rlineto
          -38 vlineto
          223 -90 123 -50 rlineto
          -4 vlineto
          -123 -49 -223 -90 rlineto
          endchar
        </CharString>
        <CharString name="greaterequal">
          -49 0 35 hstem
          394 145 callsubr
          156 vmoveto
          396 158 rlineto
          38 vlineto
          -396 158 rlineto
          -38 vlineto
          223 -89 123 -48 rlineto
          -4 vlineto
          -123 -48 -223 -89 rlineto
          endchar
        </CharString>
        <CharString name="guillemotleft">
          -128 72 358 hstem
          40 326 53 callsubr
          245 -164 rmoveto
          24 15 -89 164 146 159 -19 20 -157 -154 -8 -40 rlineto
          endchar
        </CharString>
        <CharString name="guillemotright">
          -128 72 358 hstem
          21 326 54 callgsubr
          40 164 rmoveto
          -24 -15 88 -164 -146 -159 19 -20 158 154 7 40 rlineto
          endchar
        </CharString>
        <CharString name="guilsinglleft">
          -271 72 358 hstem
          40 184 53 callsubr
          endchar
        </CharString>
        <CharString name="guilsinglright">
          -271 72 358 hstem
          21 184 54 callgsubr
          endchar
        </CharString>
        <CharString name="h">
          99 callgsubr
          hstem
          409 41 vstem
          -99 callgsubr
          -58 -54 -37 -52 -62 vhcurveto
          -4 hlineto
          13 50 54 266 -25 callsubr
          endchar
        </CharString>
        <CharString name="h.sups">
          -167 34 callgsubr
          -9 -4 -18 hvcurveto
          -39 -199 rlineto
          34 hlineto
          40 204 rlineto
          3 13 3 14 15 vvcurveto
          49 -18 31 -56 -40 -36 -24 -31 -37 vhcurveto
          -4 hlineto
          16 73 26 129 rlineto
          -35 hlineto
          endchar
        </CharString>
        <CharString name="hbar">
          -7 21 -21 435 37 109 31 -31 138 hstemhm
          405 41 hintmask 11101000
          154 383 rmoveto
          13 50 30 148 rlineto
          183 126 callgsubr
          -184 hlineto
          hintmask 11011000
          22 107 -25 callsubr
          hintmask 11101000
          -21 -107 -74 -4 -5 -27 rlineto
          72 hlineto
          -116 -581 rlineto
          42 hlineto
          67 334 rlineto
          71 72 56 30 42 hhcurveto
          61 25 -30 -59 -19 -3 -14 -5 -29 hvcurveto
          -58 -284 rlineto
          41 hlineto
          58 290 rlineto
          6 28 2 13 24 vvcurveto
          70 -32 47 -82 -58 -54 -37 -52 -62 vhcurveto
          endchar
        </CharString>
        <CharString name="hcircumflex">
          99 callgsubr
          127 30 hstem
          409 41 vstem
          -99 callgsubr
          -58 -54 -37 -52 -62 vhcurveto
          -4 hlineto
          13 50 54 266 -25 callsubr
          -89 33 -75 callgsubr
          endchar
        </CharString>
        <CharString name="hungarumlaut">
          -3 570 138 hstem
          241 280 vstem
          241 570 47 callsubr
        </CharString>
        <CharString name="hyphen">
          68 callsubr
          -210 hlineto
          endchar
        </CharString>
        <CharString name="i">
          11 callsubr
          hstem
          150 25 callsubr
          endchar
        </CharString>
        <CharString name="i.sups">
          -357 659 60 hstem
          134 58 42 callgsubr
          62 318 rlineto
          -34 hlineto
          34 72 69 callsubr
        </CharString>
        <CharString name="iacute">
          11 callsubr
          hstem
          40 247 -44 callgsubr
          -16 90 -60 callsubr
        </CharString>
        <CharString name="icircumflex">
          11 callsubr
          208 38 hstem
          40 245 -44 callgsubr
          -70 90 -55 callgsubr
          endchar
        </CharString>
        <CharString name="idieresis">
          11 callsubr
          hstem
          81 67 84 67 -44 callgsubr
          -26 118 rmoveto
          -66 callgsubr
          151 hmoveto
          -9 callsubr
          endchar
        </CharString>
        <CharString name="igrave">
          11 callsubr
          110 136 hstem
          40 187 -44 callgsubr
          58 90 79 callgsubr
        </CharString>
        <CharString name="imacron">
          11 callsubr
          146 34 hstem
          40 258 -44 callgsubr
          -62 126 72 callsubr
          5 -51 callsubr
        </CharString>
        <CharString name="infinity">
          223 171 40 -27 33 221 38 -19 33 hstemhm
          25 36 584 37 hintmask 01011100
          164 184 rmoveto
          82 50 64 46 34 hvcurveto
          4 hlineto
          hintmask 10011100
          -71 57 54 -52 82 hhcurveto
          90 65 69 92 96 -65 62 -92 -83 -50 -60 -66 -52 hvcurveto
          -4 hlineto
          hintmask 01101100
          46 -34 -53 66 -79 hhcurveto
          -81 -64 -58 -88 hvcurveto
          hintmask 01011100
          -85 64 -61 75 vhcurveto
          hintmask 10011100
          192 148 rmoveto
          74 52 53 51 62 hhcurveto
          75 47 -55 -71 -68 -45 -52 -71 -61 -51 37 84 -61 hvcurveto
          hintmask 01101100
          -187 -115 rmoveto
          -57 -51 47 66 67 49 41 58 54 47 -45 -65 46 hvcurveto
          -58 -37 -50 -53 -59 hhcurveto
          endchar
        </CharString>
        <CharString name="integral">
          -221 -158 35 876 35 hstem
          -23 394 vstem
          -13 -119 rmoveto
          -10 -33 rlineto
          -4 7 14 -2 17 hhcurveto
          89 33 92 126 26 hvcurveto
          26 137 7 229 28 143 rrcurveto
          107 20 27 77 57 hhcurveto
          14 13 -2 -2 6 hvcurveto
          10 33 rlineto
          4 -7 -15 2 -17 hhcurveto
          -91 -31 -95 -122 -24 hvcurveto
          -28 -138 -5 -232 -28 -140 rrcurveto
          -110 -22 -23 -74 -61 hhcurveto
          -14 -10 2 2 -8 hvcurveto
          endchar
        </CharString>
        <CharString name="iogonek">
          109 callsubr
          155 75 6 callgsubr
          46 116 -91 callgsubr
        </CharString>
        <CharString name="iogonek.d">
          109 callsubr
          6 callgsubr
          endchar
        </CharString>
        <CharString name="itilde">
          11 callsubr
          119 147 callgsubr
          40 277 hintmask 11011000
          40 hmoveto
          42 -23 callgsubr
          -41 hlineto
          -51 101 32 callgsubr
          hintmask 11111000
          43 -49 callgsubr
          hintmask 11011000
          -43 -6 58 -56 17 callgsubr
        </CharString>
        <CharString name="j">
          116 callsubr
          hstem
          150 76 -33 callgsubr
          120 684 -85 callgsubr
        </CharString>
        <CharString name="j.sups">
          -357 119 30 510 60 hstem
          134 58 vstem
          160 587 rmoveto
          -34 hlineto
          -74 -374 rlineto
          -37 -8 -15 -27 -29 hhcurveto
          -15 -10 6 4 -8 hvcurveto
          -14 -26 rlineto
          -8 15 15 -6 17 hhcurveto
          49 27 34 59 11 hvcurveto
          73 447 69 callsubr
        </CharString>
        <CharString name="jcircumflex">
          116 callsubr
          208 38 hstem
          -120 400 -33 callgsubr
          -2 658 -55 callsubr
          endchar
        </CharString>
        <CharString name="k">
          -64 50 callgsubr
          259 -20 hstem
          40 417 -56 callsubr
          105 529 -25 callsubr
          endchar
        </CharString>
        <CharString name="k.sups">
          -204 269 473 hstem
          63 285 42 callgsubr
          16 85 85 84 69 -169 rlineto
          35 hlineto
          -78 189 123 129 rlineto
          -39 hlineto
          -181 -180 rlineto
          -4 hlineto
          68 335 rlineto
          -35 hlineto
          endchar
        </CharString>
        <CharString name="kgreenlandic">
          -64 50 callgsubr
          hstem
          40 417 -56 callsubr
          58 290 -25 callsubr
          endchar
        </CharString>
        <CharString name="l">
          -279 -12 36 695 -20 hstem
          48 44 vstem
          -90 callgsubr
          endchar
        </CharString>
        <CharString name="l.a">
          75 callsubr
          hstem
          40 185 vstem
          -12 callgsubr
          endchar
        </CharString>
        <CharString name="l.supa">
          -356 269 473 hstem
          63 129 42 callgsubr
          94 473 rlineto
          -35 hlineto
          endchar
        </CharString>
        <CharString name="l.sups">
          -356 261 32 hstem
          70 35 vstem
          74 325 rmoveto
          -2 -9 -2 -10 -9 vvcurveto
          -22 12 -14 22 11 10 2 3 8 vhcurveto
          -2 30 rlineto
          -3 -6 -5 0 -3 hhcurveto
          -7 -5 4 7 4 0 2 2 8 hvcurveto
          85 424 rlineto
          -35 hlineto
          endchar
        </CharString>
        <CharString name="lacute">
          -279 -12 36 695 -20 hstem
          48 44 vstem
          -90 callgsubr
          -11 41 79 callsubr
        </CharString>
        <CharString name="lacute.a">
          75 callsubr
          hstem
          40 294 vstem
          -12 callgsubr
          -11 41 79 callsubr
        </CharString>
        <CharString name="lcaron">
          -292 -12 36 -8 -21 553 171 0 -20 hstemhm
          48 44 hintmask 10011000
          -90 callgsubr
          hintmask 01101000
          88 -171 rmoveto
          40 156 9 50 rlineto
          -36 hlineto
          -40 -206 rlineto
          endchar
        </CharString>
        <CharString name="lcaron.a">
          -292 21 -21 548 171 0 -20 hstemhm
          40 281 hintmask 10110000
          -12 callgsubr
          hintmask 11010000
          88 -171 rmoveto
          40 156 9 50 rlineto
          -36 hlineto
          -40 -206 rlineto
          endchar
        </CharString>
        <CharString name="ldot">
          -233 -12 36 695 -20 hstem
          48 44 133 80 vstem
          -90 callgsubr
          55 callgsubr
        </CharString>
        <CharString name="ldot.a">
          -233 21 -21 719 -20 hstemhm
          40 265 -80 80 hintmask 11100000
          -12 callgsubr
          hintmask 11010000
          55 callgsubr
        </CharString>
        <CharString name="less">
          -49 150 360 hstem
          46 50 vstem
          46 312 rmoveto
          396 -162 rlineto
          39 vlineto
          -223 90 -123 49 rlineto
          4 vlineto
          123 50 223 90 rlineto
          38 vlineto
          -396 -162 rlineto
          endchar
        </CharString>
        <CharString name="lessequal">
          -49 0 35 hstem
          46 145 callsubr
          -2 314 rmoveto
          396 -158 rlineto
          38 vlineto
          -222 89 -124 48 rlineto
          4 vlineto
          124 48 222 89 rlineto
          38 vlineto
          -396 -158 rlineto
          endchar
        </CharString>
        <CharString name="lira">
          -49 0 37 213 30 69 30 237 36 hstemhm
          149 40 -35 45 -41 40 hintmask 11110100
          77 375 rmoveto
          -7 -26 rlineto
          84 hlineto
          2 -24 2 -24 1 -21 -103 -5 rcurveline
          -7 -25 rlineto
          hintmask 11110010
          109 hlineto
          -5 -93 -48 -84 -93 -49 -5 -24 rcurveline
          356 hlineto
          6 37 rlineto
          -273 4 hlineto
          63 55 34 66 5 88 rrcurveto
          138 hlineto
          7 30 rlineto
          hintmask 11110100
          -144 hlineto
          22 -2 24 -2 23 vhcurveto
          162 hlineto
          7 30 rlineto
          hintmask 11111000
          -171 hlineto
          -2 23 -2 21 20 45 callgsubr
          -19 1 -21 2 -22 hvcurveto
          endchar
        </CharString>
        <CharString name="logicalnot">
          -49 314 34 hstem
          405 37 vstem
          48 314 rmoveto
          357 -206 37 240 -394 hlineto
          endchar
        </CharString>
        <CharString name="lozenge">
          -29 -10 35 610 35 hstem
          73 365 vstem
          232 -10 rmoveto
          47 hlineto
          159 340 -159 340 rlineto
          -47 hlineto
          -159 -340 rlineto
          180 -305 rmoveto
          -65 140 -73 165 73 164 65 141 -27 callgsubr
          66 -141 73 -164 -73 -165 -66 -140 rlineto
          endchar
        </CharString>
        <CharString name="lslash">
          -278 -12 36 -8 -21 486 -20 258 -20 hstemhm
          50 43 hintmask 01111000
          160 388 rmoveto
          83 49 7 44 -81 -49 57 287 -25 callsubr
          -63 -314 -72 -41 -8 -44 72 42 rlineto
          hintmask 10111000
          -60 -300 rlineto
          -2 36 callgsubr
          17 -15 26 15 8 2 5 11 vhcurveto
          -3 33 rlineto
          -4 -10 -2 0 -4 hhcurveto
          -10 -5 6 9 4 0 6 2 10 hvcurveto
          endchar
        </CharString>
        <CharString name="lslash.a">
          -287 21 -21 481 -20 258 -20 hstem
          42 208 vstem
          250 481 rmoveto
          -81 -49 57 287 44 callsubr
          -314 -73 -41 -8 -44 72 42 -72 -362 rlineto
          41 hlineto
          77 388 83 49 rlineto
          endchar
        </CharString>
        <CharString name="m">
          142 callsubr
          395 40 246 42 hintmask 11011000
          -43 callgsubr
          hintmask 10111000
          66 callsubr
          endchar
        </CharString>
        <CharString name="m.sups">
          15 564 31 hstem
          301 32 157 35 42 callgsubr
          45 228 rlineto
          42 40 40 25 28 hhcurveto
          33 17 -20 -37 -12 -3 -10 -3 -17 hvcurveto
          -40 -199 rlineto
          34 hlineto
          46 228 rlineto
          42 38 40 25 28 hhcurveto
          32 17 -19 -38 -10 -2 -12 90 callgsubr
          12 12 vvcurveto
          50 -20 30 -56 -35 -38 -25 -37 -43 vhcurveto
          32 -4 -15 30 -55 hhcurveto
          -35 -37 -24 -32 -34 hvcurveto
          -4 hlineto
          5 48 rlineto
          -28 hlineto
          endchar
        </CharString>
        <CharString name="macron">
          -3 606 34 hstem
          225 224 vstem
          225 606 -38 callsubr
        </CharString>
        <CharString name="minus">
          -49 314 34 hstem
          48 394 vstem
          442 314 122 callsubr
          endchar
        </CharString>
        <CharString name="multiply">
          -49 145 372 hstem
          66 358 vstem
          245 308 rmoveto
          155 -163 24 24 -155 163 155 161 -24 24 -155 -161 -155 161 -24 -24 155 -161 -155 -163 24 -24 rlineto
          endchar
        </CharString>
        <CharString name="n">
          -1 17 callsubr
          hstemhm
          409 41 hintmask 11010000
          -99 callgsubr
          -59 -54 -38 -50 -59 vhcurveto
          -4 hlineto
          hintmask 10110000
          66 callsubr
          endchar
        </CharString>
        <CharString name="n.sups">
          -166 34 callgsubr
          -10 90 callgsubr
          9 15 vvcurveto
          49 -18 31 -56 -41 -36 -24 -32 -37 vhcurveto
          -4 hlineto
          5 48 rlineto
          -28 hlineto
          endchar
        </CharString>
        <CharString name="nacute">
          -1 17 callsubr
          hstemhm
          409 41 hintmask 11010000
          -99 callgsubr
          -59 -54 -38 -50 -59 vhcurveto
          -4 hlineto
          hintmask 10110000
          66 callsubr
          139 90 -60 callsubr
        </CharString>
        <CharString name="napostrophe">
          179 17 callsubr
          166 75 hstemhm
          197 38 356 42 hintmask 11011100
          -56 callgsubr
          230 -104 rmoveto
          hintmask 10111100
          11 76 rlineto
          -35 hlineto
          -96 -480 rlineto
          41 hlineto
          71 354 rlineto
          hintmask 11011100
          71 72 57 30 42 hhcurveto
          60 100 callgsubr
          -61 -304 rlineto
          41 110 callsubr
          -82 -58 -54 -38 -50 -59 vhcurveto
          endchar
        </CharString>
        <CharString name="nbspace.frac">
          -382 endchar
        </CharString>
        <CharString name="ncaron">
          -1 17 callsubr
          110 39 hstemhm
          409 41 hintmask 11011000
          -99 callgsubr
          -59 -54 -38 -50 -59 vhcurveto
          -4 hlineto
          hintmask 10111000
          66 callsubr
          332 226 -60 callgsubr
        </CharString>
        <CharString name="nine">
          -53 callgsubr
        </CharString>
        <CharString name="nine.dnom">
          -163 -12 85 callgsubr
          43 36 179 36 vstem
          154 180 -85 callsubr
        </CharString>
        <CharString name="nine.numr">
          -163 258 85 callgsubr
          93 36 179 36 vstem
          204 450 -85 callsubr
        </CharString>
        <CharString name="nine.onum">
          -57 callsubr
        </CharString>
        <CharString name="nine.pnum">
          -53 callgsubr
        </CharString>
        <CharString name="nine.subs">
          -163 -182 85 callgsubr
          12 36 179 36 vstem
          123 10 -85 callsubr
        </CharString>
        <CharString name="nine.sups">
          -163 428 85 callgsubr
          132 36 179 36 vstem
          243 620 -85 callsubr
        </CharString>
        <CharString name="nine.tnum">
          -57 callsubr
        </CharString>
        <CharString name="notequal">
          108 callsubr
          212 rmoveto
          34 -230 vlineto
          103 168 rlineto
          127 34 -109 hlineto
          81 129 rlineto
          -37 hlineto
          -81 -129 rlineto
          -248 -34 230 hlineto
          -103 -168 rlineto
          -127 -34 109 hlineto
          -81 -129 rlineto
          37 hlineto
          81 129 rlineto
          endchar
        </CharString>
        <CharString name="ntilde">
          -1 17 callsubr
          119 147 callgsubr
          409 41 hintmask 11001100
          -99 callgsubr
          -59 -54 -38 -50 -59 vhcurveto
          -4 hlineto
          hintmask 10101100
          66 callsubr
          104 101 32 callgsubr
          hintmask 11011100
          25 callgsubr
          hintmask 11001100
          -44 -5 58 -57 17 callgsubr
        </CharString>
        <CharString name="numbersign">
          -47 21 -21 214 36 170 36 194 -20 hstem
          27 446 vstem
          41 hmoveto
          34 hlineto
          67 214 rlineto
          141 hlineto
          -67 -214 rlineto
          34 hlineto
          67 214 rlineto
          86 hlineto
          9 36 rlineto
          -83 hlineto
          52 170 rlineto
          82 hlineto
          10 36 rlineto
          -81 129 callgsubr
          -140 129 callgsubr
          -85 hlineto
          -10 -36 rlineto
          83 hlineto
          -52 -170 rlineto
          -82 hlineto
          -9 -36 rlineto
          81 hlineto
          45 36 rmoveto
          52 170 rlineto
          142 hlineto
          -52 -170 rlineto
          endchar
        </CharString>
        <CharString name="o">
          -20 callgsubr
          hstem
          88 callsubr
          vstem
          -105 callgsubr
          endchar
        </CharString>
        <CharString name="o.sups">
          -10 callsubr
        </CharString>
        <CharString name="oacute">
          -20 callgsubr
          hstem
          88 callsubr
          vstem
          -105 callgsubr
          -23 114 -60 callsubr
        </CharString>
        <CharString name="ocircumflex">
          -20 callgsubr
          176 38 hstem
          88 callsubr
          vstem
          -105 callgsubr
          -76 114 rmoveto
          36 2 callsubr
          -28 hlineto
          endchar
        </CharString>
        <CharString name="odieresis">
          -20 callgsubr
          hstemhm
          44 41 146 67 85 67 -32 42 hintmask 11110100
          -105 callgsubr
          -33 142 rmoveto
          -9 callsubr
          hintmask 11111000
          152 hmoveto
          -66 callgsubr
          endchar
        </CharString>
        <CharString name="oe">
          310 -12 36 214 33 185 36 hstem
          44 41 332 33 297 39 vstem
          205 -12 rmoveto
          85 82 59 94 45 hvcurveto
          -100 13 59 -53 85 hhcurveto
          55 52 24 28 38 hvcurveto
          -18 30 rlineto
          -25 -35 -43 -22 -42 hhcurveto
          -83 -66 64 151 22 hvcurveto
          318 hlineto
          6 19 8 31 34 vvcurveto
          99 -41 71 -104 -72 -76 -53 -90 -42 vhcurveto
          92 -14 -56 51 -85 hhcurveto
          -130 -122 -134 -180 -120 63 -70 98 hvcurveto
          88 468 rmoveto
          79 45 -55 -104 -148 -105 -125 -102 -80 -45 56 104 147 106 125 102 hvcurveto
          168 -185 rmoveto
          109 24 75 77 77 hhcurveto
          82 28 -64 -65 -21 -2 -17 -3 -19 hvcurveto
          endchar
        </CharString>
        <CharString name="ogonek">
          -3 -203 33 hstem
          116 38 vstem
          116 -140 rmoveto
          -13 callsubr
          45 40 49 59 40 hvcurveto
          -40 hlineto
          -48 -33 -49 -57 -54 vvcurveto
          endchar
        </CharString>
        <CharString name="ograve">
          -20 callgsubr
          78 136 hstem
          88 callsubr
          vstem
          -105 callgsubr
          51 114 28 callgsubr
        </CharString>
        <CharString name="ohorn">
          55 callsubr
          66 callgsubr
          27 39 hintmask 10111000
          210 24 -52 callgsubr
          hintmask 11011100
          -31 callsubr
          hintmask 10111000
          -78 callsubr
          hintmask 10111100
          -3 callsubr
        </CharString>
        <CharString name="ohungarumlaut">
          -20 callgsubr
          78 138 hstem
          88 callsubr
          vstem
          -105 callgsubr
          -53 114 47 callsubr
        </CharString>
        <CharString name="omacron">
          -20 callgsubr
          114 34 hstem
          88 callsubr
          vstem
          -105 callgsubr
          -69 150 -38 callsubr
        </CharString>
        <CharString name="one">
          -49 0 36 535 28 -28 68 hstemhm
          30 329 hintmask 10110000
          30 hmoveto
          323 hlineto
          6 36 rlineto
          -137 hlineto
          122 603 rlineto
          -34 hlineto
          hintmask 11010000
          -32 -19 -46 -14 -50 -7 96 callsubr
          -108 -535 rlineto
          -143 hlineto
          endchar
        </CharString>
        <CharString name="one.dnom">
          -167 328 25 hstem
          95 139 vstem
          121 hmoveto
          -65 callgsubr
          endchar
        </CharString>
        <CharString name="one.numr">
          -167 598 25 hstem
          145 139 vstem
          171 270 59 callsubr
        </CharString>
        <CharString name="one.onum">
          -188 21 -21 503 28 -28 68 hstemhm
          85 167 hintmask 10110000
          95 hmoveto
          41 hlineto
          116 571 114 callsubr
          -15 -51 -6 rrcurveto
          hintmask 10110000
          -5 -28 rlineto
          112 hlineto
          endchar
        </CharString>
        <CharString name="one.pnum">
          -193 21 -21 571 28 -28 68 hstemhm
          109 169 hintmask 10110000
          150 hmoveto
          128 639 114 callsubr
          -14 -51 -7 96 callsubr
          -114 -571 rlineto
          endchar
        </CharString>
        <CharString name="one.subs">
          -167 158 25 hstem
          64 139 vstem
          90 -170 59 callsubr
        </CharString>
        <CharString name="one.sups">
          -167 768 25 hstem
          184 139 vstem
          210 440 59 callsubr
        </CharString>
        <CharString name="one.tnum">
          -49 0 36 467 28 -28 68 hstemhm
          30 329 hintmask 10110000
          30 hmoveto
          323 hlineto
          6 36 rlineto
          -137 hlineto
          108 535 114 callsubr
          -15 -51 -6 96 callsubr
          -94 -467 rlineto
          -143 hlineto
          endchar
        </CharString>
        <CharString name="oneeighth">
          239 -12 29 355 30 196 25 hstemhm
          419 83 callgsubr
          hintmask 11110100
          149 270 rmoveto
          -65 callgsubr
          -86 -610 rmoveto
          489 684 rlineto
          -36 hlineto
          -489 -61 callgsubr
        </CharString>
        <CharString name="onehalf">
          238 0 31 -22 -21 382 32 196 25 hstemhm
          657 37 hintmask 10111000
          149 270 rmoveto
          -65 callgsubr
          hintmask 01111000
          -86 -610 -42 callgsubr
          hintmask 10111000
          315 12 rmoveto
          246 hlineto
          6 31 rlineto
          -190 hlineto
          153 113 72 69 89 vvcurveto
          61 -42 39 -66 -47 -39 -29 -33 -32 vhcurveto
          23 -23 rlineto
          30 27 32 23 32 hhcurveto
          51 24 -26 -46 -81 -67 -60 -178 -129 hvcurveto
          endchar
        </CharString>
        <CharString name="onequarter">
          219 0 145 -136 -21 128 29 193 52 208 25 hstemhm
          120 547 hintmask 01111100
          153 270 rmoveto
          -65 callgsubr
          392 74 rmoveto
          49 callsubr
          36 hlineto
          49 callgsubr
          -199 -527 rmoveto
          97 111 71 82 -27 callgsubr
          -24 -101 -19 -92 rlineto
          91 hmoveto
          -57 hlineto
          49 245 rlineto
          -31 hlineto
          -224 -252 -5 -22 rlineto
          171 hlineto
          hintmask 10011100
          -23 -116 rlineto
          34 hlineto
          hintmask 01111100
          23 116 rlineto
          56 hlineto
          endchar
        </CharString>
        <CharString name="onethird">
          248 -12 76 callsubr
          196 25 hstemhm
          638 36 -13 37 hintmask 11111000
          149 270 rmoveto
          -65 callgsubr
          -86 -610 -42 callgsubr
          321 78 callsubr
          hintmask 11110100
          21 callgsubr
          hintmask 11111000
          91 callgsubr
        </CharString>
        <CharString name="ordfeminine">
          -39 callsubr
        </CharString>
        <CharString name="ordfeminine.a">
          127 callgsubr
          57 34 188 35 vstem
          57 29 callgsubr
          -35 26 -60 -37 -40 0 callgsubr
        </CharString>
        <CharString name="ordmasculine">
          -10 callsubr
        </CharString>
        <CharString name="oslash">
          -7 -12 36 -5 -21 458 36 -12 -20 hstemhm
          44 40 335 41 hintmask 10101100
          407 376 rmoveto
          8 -23 4 -26 -31 vvcurveto
          -145 -104 -127 -106 -43 -33 16 31 -21 vhcurveto
          -14 28 rmoveto
          -9 23 -5 28 34 vvcurveto
          145 105 127 105 45 34 -18 -34 21 vhcurveto
          hintmask 10011100
          115 76 rmoveto
          hintmask 01101100
          -21 21 -66 -68 rlineto
          39 -28 -44 20 -53 hhcurveto
          -130 -123 -134 -180 -44 8 -37 16 -29 hvcurveto
          -68 -70 rlineto
          hintmask 10011100
          21 -20 63 65 rlineto
          -36 29 42 -19 51 hhcurveto
          131 123 134 180 41 -8 36 -14 28 hvcurveto
          endchar
        </CharString>
        <CharString name="otilde">
          -20 callgsubr
          87 32 27 31 66 callgsubr
          hintmask 11011100
          -105 callgsubr
          -58 125 32 callgsubr
          hintmask 11111100
          25 callgsubr
          hintmask 11011100
          -44 -5 58 -57 17 callgsubr
        </CharString>
        <CharString name="p">
          13 98 callsubr
          -12 -20 hstemhm
          440 41 hintmask 11101000
          92 65 rmoveto
          2 hlineto
          -44 28 43 -33 56 hhcurveto
          132 128 146 185 112 -55 61 -85 -66 -59 -38 -42 -51 hvcurveto
          -4 hlineto
          hintmask 11011000
          10 68 rlineto
          -34 hlineto
          -140 -697 rlineto
          41 hlineto
          33 174 rlineto
          hintmask 11101000
          261 499 rmoveto
          66 42 -48 -96 63 callsubr
          23 60 -35 hvcurveto
          52 259 rlineto
          53 54 70 37 53 hhcurveto
          endchar
        </CharString>
        <CharString name="p.sups">
          -159 261 31 255 40 -23 31 hstemhm
          126 26.5 173.5 35 hintmask 10111000
          103 310 rmoveto
          4 hlineto
          -35 17 30 -14 31 129 callsubr
          -34 -20 -28 -34 hvcurveto
          -4 hlineto
          hintmask 11011000
          3 40 rlineto
          -28 hlineto
          -91 -457 rlineto
          35 hlineto
          22 108 rlineto
          hintmask 10111000
          169 326 rmoveto
          37 28 -28 -63 -92 -70 -89 -70 -27 -24 90 callsubr
        </CharString>
        <CharString name="paragraph">
          -19 659 -20 hstem
          75 405 vstem
          291 -80 rmoveto
          41 hlineto
          148 739 -25 callsubr
          -141 -417 rmoveto
          6 hlineto
          84 417 rlineto
          -51 hlineto
          -132 -130 -82 -163 -113 102 -59 121 hvcurveto
          endchar
        </CharString>
        <CharString name="parenleft">
          -243 -175 905 hstem
          70 38 vstem
          126 -175 rmoveto
          29 10 rlineto
          -32 79 -15 115 98 vvcurveto
          219 78 193 142 174 vhcurveto
          -26 17 rlineto
          -145 -185 -87 -178 -233 vvcurveto
          -110 23 -113 33 -86 vhcurveto
          endchar
        </CharString>
        <CharString name="parenleft.dnom">
          -301 -74 533 hstem
          40 34 vstem
          185 459 -47 callgsubr
        </CharString>
        <CharString name="parenleft.numr">
          -301 196 533 hstem
          90 34 vstem
          235 729 -47 callgsubr
        </CharString>
        <CharString name="parenleft.subs">
          -301 -244 533 hstem
          9 34 vstem
          154 289 -47 callgsubr
        </CharString>
        <CharString name="parenleft.sups">
          -301 366 533 hstem
          129 34 vstem
          274 899 -47 callgsubr
        </CharString>
        <CharString name="parenright">
          -241 -175 905 hstem
          168 38 vstem
          150 730 rmoveto
          -28 -9 rlineto
          31 -79 15 -115 -98 vvcurveto
          -219 -78 -194 -141 -173 vhcurveto
          25 -18 rlineto
          145 185 87 178 234 vvcurveto
          110 -22 113 -34 85 vhcurveto
          endchar
        </CharString>
        <CharString name="parenright.dnom">
          -301 -74 533 hstem
          112 34 vstem
          1 -74 -47 callsubr
        </CharString>
        <CharString name="parenright.numr">
          -301 196 533 hstem
          162 34 vstem
          51 196 -47 callsubr
        </CharString>
        <CharString name="parenright.subs">
          -301 -244 533 hstem
          81 34 vstem
          -30 -244 -47 callsubr
        </CharString>
        <CharString name="parenright.sups">
          -301 366 533 hstem
          201 34 vstem
          90 366 -47 callsubr
        </CharString>
        <CharString name="partialdiff">
          -17 -12 36 337 36 233 36 hstem
          19 40 373 41 vstem
          176 24 rmoveto
          -72 -43 59 62 -2 hvcurveto
          107 74 109 112 74 46 -47 -55 34 vhcurveto
          -44 -128 -81 -106 -98 -1 rrcurveto
          22 560 rmoveto
          25 29 41 21 37 hhcurveto
          89 38 -71 -103 -51 -8 -54 -13 -52 hvcurveto
          56 -37 -52 42 -76 hhcurveto
          -136 -91 -131 -124 -94 66 -60 87 170 131 245 229 122 -51 82 -113 -49 -45 -23 -31 -36 hvcurveto
          endchar
        </CharString>
        <CharString name="percent">
          257 61 callsubr
          vstem
          180 258 -86 callgsubr
          -73 -653 -42 callgsubr
          420 hmoveto
          -43 callsubr
          endchar
        </CharString>
        <CharString name="period">
          -298 -12 88 hstem
          22 80 vstem
          55 -12 69 callgsubr
        </CharString>
        <CharString name="period.dnom">
          -359 -8 75 hstem
          -4 71 vstem
          25 -8 1 callsubr
        </CharString>
        <CharString name="period.numr">
          -359 262 75 hstem
          46 71 vstem
          75 262 1 callsubr
        </CharString>
        <CharString name="period.subs">
          -359 -178 75 hstem
          -35 71 vstem
          -6 -178 1 callsubr
        </CharString>
        <CharString name="period.sups">
          -359 432 75 hstem
          85 71 vstem
          114 432 1 callsubr
        </CharString>
        <CharString name="periodcentered">
          -298 29 callsubr
        </CharString>
        <CharString name="perthousand">
          600 61 callsubr
          53 36 217 36 vstem
          167 -12 -42 callgsubr
          49 270 -86 callgsubr
          311 -653 rmoveto
          -43 callsubr
          282 -383 rmoveto
          -43 callsubr
          endchar
        </CharString>
        <CharString name="peseta">
          -49 21 -21 268 34 141 33 131 33 hstem
          390 40 vstem
          143 302 rmoveto
          28 141 rlineto
          215 hlineto
          -96 -19 -78 -45 -112 hhcurveto
          59 305 rmoveto
          101 53 -33 -83 hvcurveto
          -5 0 -5 -5 vvcurveto
          -213 hlineto
          26 131 rlineto
          288 -131 rmoveto
          -62 hlineto
          1 7 0 7 8 vvcurveto
          96 -70 46 -104 vhcurveto
          -88 hlineto
          -33 -164 -78 -4 -6 -29 rlineto
          78 hlineto
          -89 -443 rlineto
          42 hlineto
          53 268 rlineto
          45 hlineto
          125 97 57 118 23 hvcurveto
          59 hlineto
          endchar
        </CharString>
        <CharString name="pi">
          4 -12 36 420 36 hstem
          328 43 vstem
          61 hmoveto
          41 hlineto
          88 444 rlineto
          213 hlineto
          -71 -360 rlineto
          -49 -11 9 -47 50 hhcurveto
          18 9 2 8 18 hvcurveto
          -5 32 rlineto
          -4 -10 -6 -2 -10 hhcurveto
          -25 -4 23 30 6 hvcurveto
          73 367 rlineto
          76 hlineto
          8 36 rlineto
          -392 hlineto
          -65 -4 -4 -32 rlineto
          82 hlineto
          endchar
        </CharString>
        <CharString name="plus">
          -49 314 34 hstem
          227 36 vstem
          226 108 rmoveto
          37 206 179 34 -179 200 -36 -200 -179 -34 178 hlineto
          endchar
        </CharString>
        <CharString name="plusminus">
          -49 0 35 282 35 hstem
          227 36 vstem
          226 115 rmoveto
          37 202 179 35 -179 196 -36 -196 -179 -35 178 hlineto
          216 -317 rmoveto
          35 -394 -35 vlineto
          endchar
        </CharString>
        <CharString name="product">
          115 602 37 hstem
          18 593 vstem
          18 -120 rmoveto
          41 hlineto
          146 722 rlineto
          359 hlineto
          -146 -722 rlineto
          42 hlineto
          151 759 rlineto
          -441 hlineto
          endchar
        </CharString>
        <CharString name="q">
          16 98 callsubr
          -12 -20 hstemhm
          44 42 hintmask 11101000
          339 -43 rmoveto
          -35 -174 rlineto
          42 hlineto
          hintmask 11011000
          139 697 rlineto
          -34 hlineto
          hintmask 11101000
          -19 -66 rlineto
          -3 hlineto
          47 -26 16 callsubr
          -112 56 -61 84 66 64 39 51 49 hvcurveto
          2 hlineto
          -172 -54 rmoveto
          -66 -41 48 97 144 104 143 114 45 39 -25 -62 35 hvcurveto
          -50 -241 rlineto
          -66 -57 -70 -38 -53 hhcurveto
          endchar
        </CharString>
        <CharString name="q.sups">
          -162 52 callgsubr
          361 587 rmoveto
          -27 hlineto
          24 callgsubr
          -120 -77 38 -40 56 44 40 23 36 34 hvcurveto
          4 hlineto
          -21 -82 -22 -108 rlineto
          35 hlineto
          -108 162 -30 callgsubr
        </CharString>
        <CharString name="question">
          -123 -12 88 -67 -21 658 36 hstemhm
          97 80 177 41 hintmask 01111000
          130 -12 rmoveto
          27 20 25 26 hvcurveto
          hintmask 10111000
          21 -10 16 -21 -27 -22 -27 -26 vhcurveto
          hintmask 01111000
          -19 12 -16 21 vhcurveto
          14 195 rmoveto
          37 -3 rlineto
          10 160 204 46 165 vvcurveto
          82 -51 49 -84 -60 -56 -31 -37 -34 vhcurveto
          25 -27 rlineto
          34 31 45 25 45 hhcurveto
          61 37 -38 -65 -139 -203 -47 -7 -174 hvcurveto
          endchar
        </CharString>
        <CharString name="questiondown">
          -123 -200 36 570 88 hstem
          -5 40 177 80 vstem
          259 494 rmoveto
          -26 -21 -25 -26 -21 10 -16 21 27 22 27 26 19 -12 16 -21 hvcurveto
          -14 -195 rmoveto
          -37 3 rlineto
          -9 -160 -204 -46 -165 vvcurveto
          -82 51 -49 83 60 56 31 37 34 vhcurveto
          -24 27 rlineto
          -34 -32 -45 -25 -45 hhcurveto
          -61 -37 38 65 139 203 47 7 174 hvcurveto
          endchar
        </CharString>
        <CharString name="quotedbl">
          -164 464 208 hstem
          132 212 vstem
          132 464 rmoveto
          31 hlineto
          33 136 84 callsubr
          110 -136 rmoveto
          30 hlineto
          34 136 84 callsubr
          endchar
        </CharString>
        <CharString name="quotedblbase">
          -293 1 75 hstem
          69 37 96 38 23 callgsubr
          147 -25 rmoveto
          64 33 45 59 76 vvcurveto
          32 -17 18 -23 -22 -17 -19 -22 -8 callsubr
          endchar
        </CharString>
        <CharString name="quotedblleft">
          -164 481 75 hstem
          117 38 96 38 vstem
          226 699 -31 callgsubr
          30 45 53 31 rrcurveto
          121 25 -31 callgsubr
          29 45 54 31 rrcurveto
          endchar
        </CharString>
        <CharString name="quotedblright">
          -164 626 75 hstem
          197 38 96 38 vstem
          -56 callgsubr
          147 -25 rmoveto
          64 33 45 59 76 vvcurveto
          32 -18 18 -23 -22 -16 -18 -23 -8 callsubr
          endchar
        </CharString>
        <CharString name="quoteleft">
          -298 481 75 hstem
          117 38 vstem
          226 699 -31 callgsubr
          30 45 53 31 rrcurveto
          endchar
        </CharString>
        <CharString name="quoteright">
          -298 626 75 hstem
          197 38 vstem
          -56 callgsubr
          endchar
        </CharString>
        <CharString name="quotesinglbase">
          -298 1 75 hstem
          69 37 23 callgsubr
          endchar
        </CharString>
        <CharString name="quotesingle">
          -298 464 208 hstem
          132 78 vstem
          132 464 rmoveto
          31 hlineto
          33 136 84 callsubr
          endchar
        </CharString>
        <CharString name="r">
          11 callgsubr
          hstemhm
          40 314 -76 callsubr
          endchar
        </CharString>
        <CharString name="r.sups">
          -305 560 35 hstem
          63 204 42 callgsubr
          43 216 rlineto
          52 31 31 23 32 hhcurveto
          7 4 0 -4 8 hvcurveto
          13 34 rlineto
          4 -10 -5 1 -7 hhcurveto
          -38 -30 -23 -36 -26 hvcurveto
          -4 hlineto
          7 51 rlineto
          -29 hlineto
          endchar
        </CharString>
        <CharString name="racute">
          11 callgsubr
          hstemhm
          40 319 -76 callsubr
          56 90 -60 callsubr
        </CharString>
        <CharString name="radical">
          9 -105 59 hstem
          66 569 vstem
          225 4 rmoveto
          -44 381 -115 -52 5 -31 76 32 57 -439 rlineto
          36 hlineto
          395 925 rlineto
          -40 hlineto
          -344 -816 -19 -50 rlineto
          -4 hlineto
          endchar
        </CharString>
        <CharString name="rcaron">
          11 callgsubr
          78 39 hstemhm
          40 346 3 callsubr
          249 226 -60 callgsubr
        </CharString>
        <CharString name="registered">
          -127 330 26 136 26 79 26 57 27 hstem
          68 29 197 30 65 29 vstem
          164 418 rmoveto
          29 hlineto
          16 74 rlineto
          38 hlineto
          25 -74 rlineto
          31 hlineto
          -29 81 rlineto
          28 10 22 24 32 vvcurveto
          37 -23 21 -38 vhcurveto
          -57 hlineto
          9 -105 rmoveto
          14 79 rlineto
          28 hlineto
          25 12 -14 -21 -28 -21 -16 -33 hvcurveto
          -16 -188 rmoveto
          108 86 102 111 97 -71 67 -85 -110 -84 -104 -110 -98 71 -65 85 hvcurveto
          36 350 rmoveto
          79 50 -60 -81 -99 -74 -84 -89 -81 -48 60 81 98 73 85 90 hvcurveto
          endchar
        </CharString>
        <CharString name="ring">
          -3 535 26 122 26 hstem
          256 29 105 29 vstem
          330 535 rmoveto
          48 41 45 52 50 -32 27 -42 -48 -41 -44 -52 -51 31 -27 43 hvcurveto
          13 148 rmoveto
          29 18 -21 -33 -37 -27 -31 -31 -30 -17 22 32 37 27 31 31 hvcurveto
          endchar
        </CharString>
        <CharString name="s">
          144 callgsubr
          169 40 vstem
          -98 callgsubr
          endchar
        </CharString>
        <CharString name="s.sups">
          -248 261 29 275 30 hstem
          86 34 104 34 vstem
          31 315 rmoveto
          -30 28 38 -24 46 hhcurveto
          66 49 35 61 35 -21 27 -58 28 hvcurveto
          -34 18 -25 17 25 vvcurveto
          32 28 26 40 31 26 -16 -18 19 vhcurveto
          21 24 rlineto
          23 -25 -31 17 -39 hhcurveto
          -57 -47 -38 -55 -37 29 -24 48 -24 hvcurveto
          47 -24 14 -20 -21 vvcurveto
          -35 -33 -27 -42 -40 -32 23 24 -22 vhcurveto
          endchar
        </CharString>
        <CharString name="sacute">
          144 callgsubr
          169 40 vstem
          -98 callgsubr
          175 471 -60 callsubr
        </CharString>
        <CharString name="scaron">
          33 callsubr
          78 39 hstem
          78 40 169 40 vstem
          -98 callgsubr
          368 607 -60 callgsubr
        </CharString>
        <CharString name="scircumflex">
          33 callsubr
          176 38 hstem
          78 40 169 40 vstem
          -98 callgsubr
          122 471 rmoveto
          36 2 callsubr
          -28 hlineto
          endchar
        </CharString>
        <CharString name="section">
          -51 -48 35 659 35 hstem
          60 39 56 40 89 40 53 39 vstem
          288 174 rmoveto
          -64 62 -125 18 96 vvcurveto
          59 37 36 57 22 vhcurveto
          64 -60 120 -26 -96 vvcurveto
          -62 -32 -27 -57 -22 vhcurveto
          143 438 rmoveto
          37 -35 -48 32 -57 hhcurveto
          -76 -60 -50 -82 -22 7 -19 10 -16 hvcurveto
          -65 -27 -47 -49 -73 -147 224 11 -123 vvcurveto
          -56 -48 -41 -57 -48 -47 25 39 -35 vhcurveto
          -26 -29 rlineto
          -44 43 53 -26 57 hhcurveto
          84 64 62 77 23 -6 19 -10 16 hvcurveto
          69 28 39 36 79 148 -221 4 112 vvcurveto
          56 47 34 47 45 40 -26 -35 29 vhcurveto
          endchar
        </CharString>
        <CharString name="semicolon">
          -298 -151 617 -473 83 hstemhm
          67 44 -20 80 hintmask 10010000
          20 callsubr
          hintmask 10010000
          172 587 rmoveto
          -26 -22 -27 -25 -20 12 -16 21 26 21 26 25 21 -11 16 -21 hvcurveto
          endchar
        </CharString>
        <CharString name="seven">
          -49 21 -21 603 36 hstem
          112 386 vstem
          132 hmoveto
          45 hlineto
          49 237 66 183 201 191 5 28 rcurveline
          -378 hlineto
          -8 -36 rlineto
          328 hlineto
          -178 131 callgsubr
        </CharString>
        <CharString name="seven.dnom">
          -165 359 31 hstem
          69 257 vstem
          79 hmoveto
          -69 callgsubr
          endchar
        </CharString>
        <CharString name="seven.numr">
          -165 629 31 hstem
          119 257 vstem
          129 270 rmoveto
          -69 callgsubr
          endchar
        </CharString>
        <CharString name="seven.onum">
          -70 534 37 hstem
          81 377 vstem
          95 -71 rmoveto
          45 hlineto
          49 238 64 184 199 192 6 28 rcurveline
          -369 hlineto
          -8 -37 rlineto
          318 hlineto
          -176 -176 -72 -178 -56 -251 rrcurveto
          endchar
        </CharString>
        <CharString name="seven.pnum">
          -70 21 -21 603 36 hstem
          102 376 vstem
          116 hmoveto
          45 hlineto
          49 237 66 183 196 191 6 28 rcurveline
          -368 hlineto
          -8 -36 rlineto
          318 hlineto
          -174 131 callgsubr
        </CharString>
        <CharString name="seven.subs">
          -165 189 31 hstem
          38 257 vstem
          48 -170 rmoveto
          -69 callgsubr
          endchar
        </CharString>
        <CharString name="seven.sups">
          -165 799 31 hstem
          158 257 vstem
          168 440 rmoveto
          -69 callgsubr
          endchar
        </CharString>
        <CharString name="seven.tnum">
          -49 534 37 hstem
          98 386 vstem
          117 -71 rmoveto
          45 hlineto
          49 238 67 184 201 192 5 28 rcurveline
          -378 hlineto
          -8 -37 rlineto
          328 hlineto
          -178 -176 -74 -178 -57 -251 rrcurveto
          endchar
        </CharString>
        <CharString name="seveneighths">
          240 -12 29 355 30 227 31 hstemhm
          418 83 callgsubr
          hintmask 11110100
          109 270 rmoveto
          -69 callgsubr
          18 -282 rmoveto
          490 684 rlineto
          -36 hlineto
          -490 -61 callgsubr
        </CharString>
        <CharString name="six">
          -49 -12 35 321 36 235 -89 callgsubr
        </CharString>
        <CharString name="six.dnom">
          -163 -12 82 callgsubr
          28 36 180 35 vstem
          168 210 -84 callgsubr
        </CharString>
        <CharString name="six.numr">
          -163 258 82 callgsubr
          78 36 180 35 vstem
          218 480 -84 callgsubr
        </CharString>
        <CharString name="six.onum">
          -49 -12 35 321 36 194 -20 61 -89 callgsubr
        </CharString>
        <CharString name="six.pnum">
          -49 -12 35 321 36 235 -89 callgsubr
        </CharString>
        <CharString name="six.subs">
          -163 -182 82 callgsubr
          -3 36 180 35 vstem
          137 40 -84 callgsubr
        </CharString>
        <CharString name="six.sups">
          -163 428 82 callgsubr
          117 36 180 35 vstem
          257 650 -84 callgsubr
        </CharString>
        <CharString name="six.tnum">
          -49 -12 35 321 36 194 -20 61 -89 callgsubr
        </CharString>
        <CharString name="slash">
          -164 -160 870 hstem
          -73 506 vstem
          -73 -160 rmoveto
          35 hlineto
          471 870 rlineto
          -36 hlineto
          endchar
        </CharString>
        <CharString name="slash.frac">
          -433 -12 684 hstem
          -207 526 vstem
          -171 -12 -42 callgsubr
          endchar
        </CharString>
        <CharString name="space">
          -322 endchar
        </CharString>
        <CharString name="space.frac">
          -382 endchar
        </CharString>
        <CharString name="sterling">
          -49 0 37 256 34 289 36 hstemhm
          149 40 -30 40 hintmask 11101000
          71 323 rmoveto
          -8 -30 rlineto
          95 hlineto
          1 -8 0 -8 -7 vvcurveto
          -101 -47 -93 -100 -52 vhcurveto
          -5 -24 rlineto
          356 hlineto
          6 37 rlineto
          -273 4 hlineto
          69 61 34 73 102 5 0 6 5 vvcurveto
          152 hlineto
          7 34 rlineto
          hintmask 11110000
          -161 hlineto
          -3 40 -5 42 34 45 callgsubr
          -34 4 -41 3 -38 hvcurveto
          endchar
        </CharString>
        <CharString name="summation">
          -41 -120 37 686 36 hstemhm
          -53 569 -410 43 hintmask 11100000
          -48 -87 rmoveto
          -5 -33 rlineto
          446 hlineto
          10 37 rlineto
          -396 4 hlineto
          308 341 rlineto
          hintmask 11010000
          -166 337 rlineto
          4 359 vlineto
          8 36 rlineto
          -407 hlineto
          -6 -32 169 -339 rlineto
          endchar
        </CharString>
        <CharString name="t">
          135 callsubr
          hstem
          73 41 vstem
          -94 callgsubr
          endchar
        </CharString>
        <CharString name="t.sups">
          -305 261 30 265 31 hstem
          83 35 vstem
          87 365 rmoveto
          -2 -12 -2 -11 -10 vvcurveto
          -38 16 -33 54 13 23 6 6 15 vhcurveto
          -7 28 rlineto
          -4 -10 -10 -6 -19 hhcurveto
          -27 -13 17 29 6 2 12 1 9 hvcurveto
          39 192 rlineto
          90 hlineto
          5 31 rlineto
          -90 hlineto
          18 91 rlineto
          -29 hlineto
          -23 -91 -50 -3 -5 -28 rlineto
          49 hlineto
          endchar
        </CharString>
        <CharString name="tcaron">
          135 callsubr
          hstem
          73 41 vstem
          -94 callgsubr
          188 104 22 callgsubr
        </CharString>
        <CharString name="thorn">
          13 98 callsubr
          227 -20 hstem
          440 41 vstem
          221 -12 rmoveto
          132 128 146 185 112 -55 61 -85 -65 -61 -38 -41 -51 hvcurveto
          -2 hlineto
          21 97 42 209 -25 callsubr
          -187 -936 rlineto
          41 hlineto
          33 174 21 108 rlineto
          2 hlineto
          -44 29 42 -33 56 hhcurveto
          111 468 rmoveto
          66 42 -48 -96 63 callsubr
          23 60 -35 hvcurveto
          52 260 rlineto
          124 callsubr
          endchar
        </CharString>
        <CharString name="three">
          -49 -12 36 292 35 264 36 hstemhm
          361 41 -3 41 hintmask 11110000
          -5 95 rmoveto
          -48 31 61 -59 90 hhcurveto
          132 93 81 119 70 -47 50 -70 21 hvcurveto
          4 vlineto
          hintmask 11101000
          98 25 57 70 82 vvcurveto
          85 -50 56 -101 -59 -61 -24 -39 -48 vhcurveto
          24 -30 rlineto
          35 36 59 22 44 hhcurveto
          80 35 -47 -66 -65 -59 -86 -173 hvcurveto
          -8 -35 rlineto
          hintmask 11110000
          144 58 -58 -75 -90 -75 -69 -105 -78 -48 49 45 -31 hvcurveto
          endchar
        </CharString>
        <CharString name="three.dnom">
          -165 -12 76 callsubr
          hstemhm
          226 37 -13 36 hintmask 11110000
          1 68 -63 callgsubr
          33 13 30 -41 callsubr
        </CharString>
        <CharString name="three.numr">
          -165 258 76 callsubr
          hstemhm
          276 37 -13 36 hintmask 11110000
          51 338 -63 callgsubr
          33 13 30 -41 callsubr
        </CharString>
        <CharString name="three.onum">
          -51 callgsubr
        </CharString>
        <CharString name="three.pnum">
          -67 -12 36 292 35 264 36 hstemhm
          352 41 -4 42 hintmask 11110000
          -15 95 rmoveto
          -48 32 61 -59 90 hhcurveto
          131 94 81 119 70 -48 50 -70 21 hvcurveto
          4 vlineto
          hintmask 11101000
          99 25 57 70 82 vvcurveto
          85 -50 56 -102 -59 -60 -24 -39 -48 vhcurveto
          24 -30 rlineto
          35 36 58 22 44 hhcurveto
          80 35 -47 -66 -65 -59 -86 -172 hvcurveto
          -8 -35 rlineto
          hintmask 11110000
          143 59 -58 -75 -90 -76 -69 -105 -77 -49 49 45 -30 hvcurveto
          endchar
        </CharString>
        <CharString name="three.subs">
          -165 -182 76 callsubr
          hstemhm
          195 37 -13 36 hintmask 11110000
          -30 -102 -63 callgsubr
          32 13 31 -41 callsubr
        </CharString>
        <CharString name="three.sups">
          -165 428 76 callsubr
          hstemhm
          315 37 -13 36 hintmask 11110000
          90 508 -63 callgsubr
          32 13 31 -41 callsubr
        </CharString>
        <CharString name="three.tnum">
          -51 callgsubr
        </CharString>
        <CharString name="threeeighths">
          259 -12 29 241 31 83 30 55 29 155 31 hstemhm
          274 37 -13 36 103 83 callgsubr
          hintmask 1111110101000000
          49 338 139 callgsubr
          61 hhcurveto
          72 63 44 77 34 -24 40 -50 15 hvcurveto
          hintmask 1111101101000000
          -32 callgsubr
          32 13 31 hhcurveto
          45 27 -26 -40 -42 -38 -47 -98 hvcurveto
          -7 -29 rlineto
          hintmask 1111110101000000
          80 39 -39 -44 -55 -45 -30 -52 -51 -30 30 37 -19 hvcurveto
          99 -368 -42 callgsubr
          333 -19 callgsubr
          hintmask 1111110110100000
          -24 callgsubr
          hintmask 1111110101000000
          -5 callgsubr
          hintmask 1111110110100000
          -9 callgsubr
          hintmask 1111110101000000
          -50 -22 -49 -43 -58 vvcurveto
          endchar
        </CharString>
        <CharString name="threequarters">
          238 0 145 -136 -21 128 29 113 31 49 52 67 29 155 31 hstemhm
          275 37 -13 36 hintmask 0111011100000000
          134 604 rmoveto
          hintmask 0111011010000000
          24 30 32 13 31 hhcurveto
          45 27 -26 -40 -42 -38 -47 -98 hvcurveto
          -7 -29 rlineto
          hintmask 0111011100000000
          80 39 -39 -44 -55 -45 -30 -52 -51 -30 30 37 -19 hvcurveto
          -28 -18 rlineto
          -41 21 45 -39 61 hhcurveto
          72 63 44 77 34 -24 40 -50 15 hvcurveto
          hintmask 0111111010000000
          59 -34 callgsubr
          -35 vhcurveto
          533 41 rmoveto
          49 callsubr
          36 hlineto
          49 callgsubr
          -218 -527 rmoveto
          97 111 71 82 -27 callgsubr
          -25 -101 -18 -92 rlineto
          91 hmoveto
          -57 hlineto
          48 245 rlineto
          -30 hlineto
          -224 -252 -5 -22 rlineto
          171 hlineto
          hintmask 1001011100000000
          -23 -116 rlineto
          34 hlineto
          hintmask 0111011100000000
          23 116 rlineto
          56 hlineto
          endchar
        </CharString>
        <CharString name="tilde">
          -3 579 147 callgsubr
          208 260 hintmask 01100000
          236 581 32 callgsubr
          hintmask 11100000
          25 callgsubr
          hintmask 01100000
          -44 -5 58 -57 17 callgsubr
        </CharString>
        <CharString name="trademark">
          76 417 46 172 41 -33 33 hstemhm
          79 563 hintmask 10110000
          317 369 rmoveto
          35 hlineto
          32 162 15 104 -27 callgsubr
          41 -218 rlineto
          28 hlineto
          hintmask 11010000
          28 callsubr
          rlineto
          hintmask 10110000
          -24 127 rlineto
          -49 hlineto
          -249 -307 rmoveto
          35 hlineto
          55 274 rlineto
          103 hlineto
          7 33 rlineto
          -244 hlineto
          -7 -33 rlineto
          105 hlineto
          endchar
        </CharString>
        <CharString name="triagdn">
          23 36 478 hstem
          23 488 vstem
          268 36 rmoveto
          243 476 rlineto
          2 -488 -2 vlineto
          243 -476 rlineto
          endchar
        </CharString>
        <CharString name="triagup">
          23 48 478 hstem
          23 488 vstem
          266 526 rmoveto
          -243 -476 rlineto
          -2 488 2 vlineto
          -243 476 rlineto
          endchar
        </CharString>
        <CharString name="two">
          -49 0 37 578 36 hstem
          395 41 vstem
          -9 hmoveto
          377 hlineto
          6 37 rlineto
          -310 hlineto
          256 221 116 97 147 vvcurveto
          85 -55 64 -102 96 callgsubr
          82 38 -54 -66 -131 -117 -93 -283 -244 hvcurveto
          endchar
        </CharString>
        <CharString name="two.dnom">
          -165 0 31 339 32 hstem
          254 37 vstem
          5 hmoveto
          -81 callgsubr
          endchar
        </CharString>
        <CharString name="two.numr">
          -165 270 31 339 32 hstem
          304 37 vstem
          55 270 rmoveto
          -81 callgsubr
          endchar
        </CharString>
        <CharString name="two.onum">
          -59 0 37 510 36 hstem
          367 40 vstem
          -9 hmoveto
          366 hlineto
          6 37 rlineto
          -298 hlineto
          230 186 112 85 126 vvcurveto
          84 -52 65 -94 94 callsubr
          73 37 -55 -65 -111 -110 -79 -262 -210 hvcurveto
          endchar
        </CharString>
        <CharString name="two.pnum">
          -58 0 37 578 36 hstem
          385 41 vstem
          -9 hmoveto
          367 hlineto
          6 37 rlineto
          -300 hlineto
          248 221 114 97 147 vvcurveto
          85 -53 64 -94 96 callgsubr
          74 36 -54 -66 -131 -113 -93 -277 -244 hvcurveto
          endchar
        </CharString>
        <CharString name="two.subs">
          -165 -170 31 339 32 hstem
          223 37 vstem
          -26 -170 rmoveto
          -81 callgsubr
          endchar
        </CharString>
        <CharString name="two.sups">
          -165 440 31 339 32 hstem
          343 37 vstem
          94 440 rmoveto
          -81 callgsubr
          endchar
        </CharString>
        <CharString name="two.tnum">
          -49 0 37 510 36 hstem
          377 41 vstem
          -9 hmoveto
          377 hlineto
          6 37 rlineto
          -309 hlineto
          238 186 115 85 126 vvcurveto
          84 -55 65 -102 94 callsubr
          82 38 -55 -65 -111 -112 -79 -270 -210 hvcurveto
          endchar
        </CharString>
        <CharString name="twothirds">
          267 -12 31 168 29 54 31 70 31 238 32 hstemhm
          304 37 316 36 -13 37 hintmask 11111110
          55 270 rmoveto
          -81 callgsubr
          119 -310 -42 callgsubr
          290 78 callsubr
          hintmask 11111101
          21 callgsubr
          hintmask 11111110
          91 callgsubr
        </CharString>
        <CharString name="u">
          7 -58 callgsubr
          hstemhm
          66 42 hintmask 10110000
          475 480 rmoveto
          -41 -106 callsubr
          hintmask 01110000
          -18 callgsubr
          endchar
        </CharString>
        <CharString name="u.sups">
          -163 261 31 hstem
          79 35 vstem
          357 587 rmoveto
          -35 hlineto
          -45 -228 rlineto
          -46 -46 -35 -21 -34 hhcurveto
          -32 -16 19 38 11 2 10 4 18 hvcurveto
          40 199 rlineto
          -35 hlineto
          -40 -204 rlineto
          -4 -18 -2 -9 -16 vvcurveto
          -49 19 -30 56 40 36 24 32 37 vhcurveto
          4 hlineto
          -5 -48 rlineto
          28 hlineto
          endchar
        </CharString>
        <CharString name="uacute">
          7 -58 callgsubr
          hstemhm
          66 42 hintmask 10110000
          475 480 rmoveto
          -41 -106 callsubr
          hintmask 01110000
          -18 callgsubr
          -117 570 -60 callsubr
        </CharString>
        <CharString name="ubreve">
          7 -58 callgsubr
          116 30 hstemhm
          66 42 123 28 -12 callsubr
          -60 576 -39 callgsubr
          -31 hlineto
          -49 -17 2 callgsubr
        </CharString>
        <CharString name="ucircumflex">
          7 -58 callgsubr
          208 38 hstemhm
          66 42 hintmask 10111000
          475 480 rmoveto
          -41 -106 callsubr
          hintmask 01111000
          -18 callgsubr
          -171 570 rmoveto
          37 2 callsubr
          -29 hlineto
          endchar
        </CharString>
        <CharString name="udieresis">
          7 -58 callgsubr
          hstemhm
          66 42 114 67 84 68 hintmask 10110000
          -10 callgsubr
          -127 598 rmoveto
          15 callsubr
        </CharString>
        <CharString name="ugrave">
          7 -58 callgsubr
          110 136 hstemhm
          66 42 hintmask 10111000
          475 480 rmoveto
          -41 -106 callsubr
          hintmask 01111000
          -18 callgsubr
          -43 570 28 callgsubr
        </CharString>
        <CharString name="uhorn">
          18 -58 callgsubr
          hstemhm
          66 42 429 39 hintmask 10111000
          533 586 rmoveto
          4 -13 0 -7 -10 vvcurveto
          -45 -48 -25 -46 -6 vhcurveto
          -9 -106 callsubr
          hintmask 01111000
          -11 callgsubr
        </CharString>
        <CharString name="uhungarumlaut">
          7 -58 callgsubr
          110 138 hstemhm
          66 42 hintmask 10111000
          475 480 rmoveto
          -41 -106 callsubr
          hintmask 01111000
          -18 callgsubr
          -147 570 87 callsubr
          25 -138 rmoveto
          34 hlineto
          116 138 rlineto
          -46 hlineto
          endchar
        </CharString>
        <CharString name="umacron">
          7 -58 callgsubr
          146 34 hstemhm
          66 42 hintmask 10111000
          475 480 rmoveto
          -41 -106 callsubr
          hintmask 01111000
          -18 callgsubr
          -163 606 20 callgsubr
          endchar
        </CharString>
        <CharString name="underscore">
          -27 -115 34 hstem
          -29 465 vstem
          -21 -81 rmoveto
          -8 -34 rlineto
          458 hlineto
          7 34 rlineto
          endchar
        </CharString>
        <CharString name="uni00470303">
          8 callgsubr
          43 111 callsubr
          58 43 hintmask 11101100
          -101 callgsubr
          243 468 rmoveto
          104 callsubr
          hintmask 11111100
          -22 callsubr
          hintmask 11101100
          -11 callsubr
        </CharString>
        <CharString name="uni00670303">
          -35 callgsubr
          119 147 callgsubr
          44 42 hintmask 11010110
          445 480 rmoveto
          hintmask 11100110
          -101 callsubr
          hintmask 11010110
          -49 callsubr
          hintmask 11100110
          -66 callsubr
          hintmask 11010110
          44 callgsubr
          hintmask 11100110
          39 546 32 callgsubr
          hintmask 11101110
          43 -49 callgsubr
          hintmask 11100110
          -43 -6 58 -56 17 callgsubr
        </CharString>
        <CharString name="uni00670303.a">
          -26 callsubr
          87 32 27 31 35 callgsubr
          hintmask 1101011010100000
          -26 callgsubr
          hintmask 1110011101000000
          -92 callsubr
          hintmask 1110011010100000
          -72 callgsubr
          hintmask 1101011010100000
          -19 callsubr
          hintmask 1110011011000000
          -79 callsubr
          hintmask 1101011010100000
          -67 callsubr
          -84 123 rmoveto
          32 12 18 25 17 hhcurveto
          hintmask 1110111010100000
          44 5 -59 57 hhcurveto
          39 26 43 45 14 hvcurveto
          -28 hlineto
          -32 -12 -18 -24 -17 hhcurveto
          hintmask 1110011010100000
          -44 -5 58 -56 hhcurveto
          -40 -26 -42 -46 -14 hvcurveto
          endchar
        </CharString>
        <CharString name="uni00A0">
          -322 endchar
        </CharString>
        <CharString name="uni00AD">
          68 callsubr
          -209 hlineto
          endchar
        </CharString>
        <CharString name="uni00B5">
          3 -11 36 hstem
          -3 475 vstem
          174 480 rmoveto
          -41 hlineto
          -136 -678 rlineto
          41 hlineto
          30 156 17 96 rlineto
          -48 15 38 -17 46 hhcurveto
          55 53 39 50 56 hvcurveto
          4 hlineto
          -11 -78 rlineto
          35 -23 callgsubr
          -41 hlineto
          -71 -354 rlineto
          -70 -72 -56 -31 -42 hhcurveto
          -60 -25 30 59 19 2 14 6 29 hvcurveto
          endchar
        </CharString>
        <CharString name="uni0122">
          120 callgsubr
          186 34 vstem
          -101 callgsubr
          188 -322 rmoveto
          20 -33 callsubr
        </CharString>
        <CharString name="uni0123">
          -35 callgsubr
          hstemhm
          44 42 191 35 hintmask 11011100
          445 480 rmoveto
          hintmask 11101100
          -101 callsubr
          hintmask 11011100
          -49 callsubr
          hintmask 11101100
          -66 callsubr
          hintmask 11011100
          81 callgsubr
          162 532 116 callgsubr
          43 62 callgsubr
        </CharString>
        <CharString name="uni0123.a">
          -26 callsubr
          hstemhm
          -9 39 53 39 -35 40 104 34 74 42 -13 39 hintmask 1101101101000000
          -26 callgsubr
          hintmask 1110110110000000
          -33 -27 -18 -31 -29 vvcurveto
          -24 12 -26 22 -13 vhcurveto
          -2 vlineto
          -53 -26 -73 -45 -68 vvcurveto
          -81 85 -35 82 117 106 54 104 64 -44 31 -114 13 vhcurveto
          -75 8 -26 17 38 vvcurveto
          26 20 25 19 15 vhcurveto
          -8 16 16 -3 20 hhcurveto
          hintmask 1110101101000000
          -72 callgsubr
          hintmask 1101101101000000
          8 -17 -15 4 -23 hhcurveto
          -112 -82 -91 -117 hvcurveto
          hintmask 1110101110000000
          57 -276 rmoveto
          20 -4 22 -4 18 -2 rrcurveto
          95 -10 40 -22 -48 vvcurveto
          -64 -77 -52 -101 -69 -62 27 64 49 65 45 49 21 vhcurveto
          hintmask 1101101101000000
          133 450 rmoveto
          57 34 -43 -64 -85 -65 -80 -85 -57 -34 43 63 86 65 80 85 hvcurveto
          29 109 116 callgsubr
          44 62 callgsubr
        </CharString>
        <CharString name="uni012C">
          -284 -18 callsubr
          70 31 hstem
          106 28 -52 callsubr
          24 50 rmoveto
          72 41 148 callgsubr
          -30 hlineto
          -35 -14 5 callgsubr
          endchar
        </CharString>
        <CharString name="uni012D">
          11 callsubr
          116 30 hstem
          90 28 -44 callgsubr
          41 96 -39 callgsubr
          -31 -62 callsubr
          -5 16 -62 77 hhcurveto
          endchar
        </CharString>
        <CharString name="uni0136">
          21 106 callsubr
          263 34 -38 callgsubr
          52 -733 rmoveto
          20 -33 callsubr
        </CharString>
        <CharString name="uni0137">
          -64 50 callgsubr
          259 -20 hstem
          205 35 -56 callsubr
          105 529 -25 callsubr
          -20 -793 -58 callsubr
          endchar
        </CharString>
        <CharString name="uni013B">
          133 callgsubr
          217 35 vstem
          -62 callgsubr
          6 -733 -58 callsubr
          endchar
        </CharString>
        <CharString name="uni013C">
          99 callsubr
          hstemhm
          48 44 -32 35 hintmask 10110000
          -90 callgsubr
          hintmask 01101000
          -165 -793 -59 callsubr
          -27 16 -34 10 vhcurveto
          endchar
        </CharString>
        <CharString name="uni013C.a">
          75 callsubr
          hstem
          58 35 vstem
          -12 callgsubr
          -167 -793 -58 callsubr
          endchar
        </CharString>
        <CharString name="uni0145">
          137 callgsubr
          258 35 vstem
          -96 callgsubr
          47 -741 -58 callsubr
          endchar
        </CharString>
        <CharString name="uni0146">
          -1 17 callsubr
          hstemhm
          218 34 157 41 hintmask 11011000
          -99 callgsubr
          -59 -54 -38 -50 -59 vhcurveto
          -4 hlineto
          hintmask 10111000
          66 callsubr
          39 -554 rmoveto
          21 -33 callsubr
        </CharString>
        <CharString name="uni014E">
          107 -48 callsubr
          38 31 hstem
          61 44 203 28 211 -103 callgsubr
          25 75 rmoveto
          72 41 -5 callsubr
          -4 22 -59 70 hhcurveto
          endchar
        </CharString>
</ttFont>
